<svg width="331" height="268" viewBox="0 0 331 268" fill="none" xmlns="http://www.w3.org/2000/svg">
<g clip-path="url(#clip0_44_50)">
<g filter="url(#filter0_d_44_50)">
<path d="M220.414 268L220.344 267.993L110.587 257.774L10.7806 267.067C8.1747 267.309 5.57939 266.505 3.56559 264.829C1.55178 263.154 0.284444 260.746 0.0423794 258.134C0.0142052 257.83 0.000106811 257.525 8.23308e-05 257.219V19.3104C-0.00999156 16.8429 0.904736 14.4615 2.56316 12.6377C4.22159 10.814 6.5028 9.68084 8.95513 9.46269L110.587 0L110.657 0.00668298L220.414 10.2257L320.219 0.933153C322.825 0.690521 325.421 1.49537 327.434 3.17064C329.448 4.84592 330.716 7.25438 330.958 9.8662C330.986 10.1703 331 10.4752 331 10.7809V248.689C331.01 251.157 330.095 253.538 328.437 255.362C326.779 257.186 324.497 258.319 322.045 258.537L220.414 268Z" fill="#E1B972"/>
</g>
<path d="M152.998 88.0144C131.752 72.5057 109.398 57.7996 86.5617 44.307L85.4156 43.6299V89.3914H154.885L152.998 88.0144ZM86.9337 87.8698V46.2965C108.658 59.1767 129.931 73.1524 150.217 87.8699L86.9337 87.8698ZM260.523 182.059C251.335 172.485 241.909 163.128 232.244 153.99C229.58 151.468 226.899 148.966 224.202 146.485C207.742 131.33 190.74 116.917 173.197 103.245L172.992 103.086H85.4156V183.349H261.761L260.523 182.059ZM86.9337 181.827V104.607H172.472C189.388 117.795 205.846 131.722 221.845 146.386C224.624 148.931 227.383 151.496 230.123 154.081C239.702 163.104 249.058 172.353 258.189 181.827H86.9337ZM260.523 182.059C251.335 172.485 241.909 163.128 232.244 153.99C229.58 151.468 226.899 148.966 224.202 146.485C207.742 131.33 190.74 116.917 173.197 103.245L172.992 103.086H85.4156V183.349H261.761L260.523 182.059ZM86.9337 181.827V104.607H172.472C189.388 117.795 205.846 131.722 221.845 146.386C224.624 148.931 227.383 151.496 230.123 154.081C239.702 163.104 249.058 172.353 258.189 181.827H86.9337ZM152.998 88.0144C131.752 72.5057 109.398 57.7996 86.5617 44.307L85.4156 43.6299V89.3914H154.885L152.998 88.0144ZM86.9337 87.8698V46.2965C108.658 59.1767 129.931 73.1524 150.217 87.8699L86.9337 87.8698ZM152.998 88.0144C131.752 72.5057 109.398 57.7996 86.5617 44.307L85.4156 43.6299V89.3914H154.885L152.998 88.0144ZM86.9337 87.8698V46.2965C108.658 59.1767 129.931 73.1524 150.217 87.8699L86.9337 87.8698ZM260.523 182.059C251.335 172.485 241.909 163.128 232.244 153.99C229.58 151.468 226.899 148.966 224.202 146.485C207.742 131.33 190.74 116.917 173.197 103.245L172.992 103.086H85.4156V183.349H261.761L260.523 182.059ZM86.9337 181.827V104.607H172.472C189.388 117.795 205.846 131.722 221.845 146.386C224.624 148.931 227.383 151.496 230.123 154.081C239.702 163.104 249.058 172.353 258.189 181.827H86.9337ZM10.2761 197.043V198.565H70.2343V220.628H10.2761V222.149H71.7525V197.043H10.2761ZM85.4156 235.843V251.261L86.9337 251.12V237.365H320.724V235.843L85.4156 235.843ZM320.724 198.565V197.043H85.4156V222.149H320.724V220.628H86.9337V198.565L320.724 198.565ZM178.951 87.8698C149.826 65.3521 119.069 45.0399 86.9337 27.1018V11.6958L85.4155 11.8365V27.3618L86.5845 28.65C118.589 46.5393 149.222 66.789 178.23 89.2317L178.435 89.3914H320.724V87.8698L178.951 87.8698ZM70.2343 87.8698H10.2761V89.3914H71.7525V13.1071L70.2343 13.2478L70.2343 87.8698ZM320.724 103.086H195.635L197.271 104.432C212.672 117.134 227.794 130.605 242.636 144.845C244.746 146.869 246.849 148.909 248.944 150.966C259.373 161.18 269.599 171.727 279.621 182.607L280.873 183.349H320.724V181.827H280.969C271.055 171.055 260.927 160.594 250.583 150.445C248.515 148.413 246.439 146.396 244.355 144.393C229.834 130.428 215.004 117.167 199.863 104.607H320.724V103.086ZM10.2761 235.843V237.365H70.2343V252.672L71.7525 252.531V235.843H10.2761ZM10.2761 103.086V104.607H70.2343V181.827H10.2761V183.349H71.7525V103.086H10.2761ZM152.998 88.0144C131.752 72.5057 109.398 57.7996 86.5617 44.307L85.4156 43.6299V89.3914H154.885L152.998 88.0144ZM86.9337 87.8698V46.2965C108.658 59.1767 129.931 73.1524 150.217 87.8699L86.9337 87.8698ZM260.523 182.059C251.335 172.485 241.909 163.128 232.244 153.99C229.58 151.468 226.899 148.966 224.202 146.485C207.742 131.33 190.74 116.917 173.197 103.245L172.992 103.086H85.4156V183.349H261.761L260.523 182.059ZM86.9337 181.827V104.607H172.472C189.388 117.795 205.846 131.722 221.845 146.386C224.624 148.931 227.383 151.496 230.123 154.081C239.702 163.104 249.058 172.353 258.189 181.827H86.9337ZM152.998 88.0144C131.752 72.5057 109.398 57.7996 86.5617 44.307L85.4156 43.6299V89.3914H154.885L152.998 88.0144ZM86.9337 87.8698V46.2965C108.658 59.1767 129.931 73.1524 150.217 87.8699L86.9337 87.8698ZM260.523 182.059C251.335 172.485 241.909 163.128 232.244 153.99C229.58 151.468 226.899 148.966 224.202 146.485C207.742 131.33 190.74 116.917 173.197 103.245L172.992 103.086H85.4156V183.349H261.761L260.523 182.059ZM86.9337 181.827V104.607H172.472C189.388 117.795 205.846 131.722 221.845 146.386C224.624 148.931 227.383 151.496 230.123 154.081C239.702 163.104 249.058 172.353 258.189 181.827H86.9337Z" fill="#B29762"/>
<path d="M224.624 60.0355C232.286 60.0355 238.497 53.8102 238.497 46.131C238.497 38.4518 232.286 32.2266 224.624 32.2266C216.963 32.2266 210.752 38.4518 210.752 46.131C210.752 53.8102 216.963 60.0355 224.624 60.0355Z" fill="#C06D6D"/>
<path d="M268.128 88.9795H200.072C199.987 88.9807 199.902 88.9739 199.818 88.9594L232.005 33.0792C232.202 32.7311 232.487 32.4416 232.831 32.2402C233.176 32.0388 233.568 31.9326 233.967 31.9326C234.366 31.9326 234.757 32.0388 235.102 32.2402C235.447 32.4416 235.732 32.7311 235.928 33.0792L257.53 70.5791L258.565 72.3735L268.128 88.9795Z" fill="#B29762"/>
<path opacity="0.2" d="M268.128 88.9796H244.892L256.299 72.3733L257.119 71.1772L257.53 70.5791L258.565 72.3733L268.128 88.9796Z" fill="black"/>
<path d="M306.021 88.9794H247.158L258.565 72.3733L259.386 71.177L274.249 49.5361C275.224 48.1178 277.568 48.0295 278.714 49.2686C278.791 49.3531 278.862 49.4425 278.928 49.5361L306.021 88.9794Z" fill="#B29762"/>
<path d="M310.389 167.752C314.267 167.752 317.411 164.601 317.411 160.715C317.411 156.828 314.267 153.677 310.389 153.677C306.511 153.677 303.368 156.828 303.368 160.715C303.368 164.601 306.511 167.752 310.389 167.752Z" fill="#B29762"/>
<path d="M311.066 181.911H309.628L310.284 159.655L311.066 181.911Z" fill="#9D804D"/>
<path d="M310.41 163.873L311.954 161.732L310.389 164.403L310.22 164.106L310.41 163.873Z" fill="#9D804D"/>
<path d="M310.241 166.035L308.697 163.894L310.263 166.565L310.431 166.268L310.241 166.035Z" fill="#9D804D"/>
<path d="M290.425 160.999C296.152 160.999 300.795 156.346 300.795 150.605C300.795 144.865 296.152 140.212 290.425 140.212C284.698 140.212 280.055 144.865 280.055 150.605C280.055 156.346 284.698 160.999 290.425 160.999Z" fill="#B29762"/>
<path d="M291.424 181.911H289.3L290.269 149.04L291.424 181.911Z" fill="#9D804D"/>
<path d="M290.456 155.27L292.736 152.108L290.425 156.053L290.175 155.615L290.456 155.27Z" fill="#9D804D"/>
<path d="M290.206 158.463L287.926 155.301L290.238 159.245L290.487 158.807L290.206 158.463Z" fill="#9D804D"/>
<path d="M49.6697 167.752C53.5475 167.752 56.691 164.601 56.691 160.715C56.691 156.828 53.5475 153.677 49.6697 153.677C45.792 153.677 42.6484 156.828 42.6484 160.715C42.6484 164.601 45.792 167.752 49.6697 167.752Z" fill="#B29762"/>
<path d="M50.3469 181.911H48.9088L49.5643 159.655L50.3469 181.911Z" fill="#9D804D"/>
<path d="M49.6909 163.873L51.235 161.732L49.6698 164.403L49.5009 164.106L49.6909 163.873Z" fill="#9D804D"/>
<path d="M49.522 166.035L47.9779 163.894L49.5431 166.565L49.7121 166.268L49.522 166.035Z" fill="#9D804D"/>
<path d="M29.7053 160.999C35.4324 160.999 40.0752 156.346 40.0752 150.605C40.0752 144.865 35.4324 140.212 29.7053 140.212C23.9782 140.212 19.3354 144.865 19.3354 150.605C19.3354 156.346 23.9782 160.999 29.7053 160.999Z" fill="#B29762"/>
<path d="M30.7048 181.911H28.5809L29.5495 149.04L30.7048 181.911Z" fill="#9D804D"/>
<path d="M29.7367 155.27L32.0166 152.108L29.7055 156.053L29.4558 155.615L29.7367 155.27Z" fill="#9D804D"/>
<path d="M29.487 158.463L27.2067 155.301L29.5183 159.245L29.768 158.807L29.487 158.463Z" fill="#9D804D"/>
<line x1="1.5" y1="-1.5" x2="23.7783" y2="-1.5" transform="matrix(0.611569 -0.791191 0.828924 0.559361 127.568 195)" stroke="#30302A" stroke-width="3" stroke-linecap="round"/>
<line x1="1.5" y1="-1.5" x2="24.8181" y2="-1.5" transform="matrix(0.835927 0.548841 -0.601064 0.799201 124 178.333)" stroke="#30302A" stroke-width="3" stroke-linecap="round"/>
</g>
<defs>
<filter id="filter0_d_44_50" x="-12" y="-8" width="363" height="300" filterUnits="userSpaceOnUse" color-interpolation-filters="sRGB">
<feFlood flood-opacity="0" result="BackgroundImageFix"/>
<feColorMatrix in="SourceAlpha" type="matrix" values="0 0 0 0 0 0 0 0 0 0 0 0 0 0 0 0 0 0 127 0" result="hardAlpha"/>
<feOffset dx="4" dy="8"/>
<feGaussianBlur stdDeviation="8"/>
<feComposite in2="hardAlpha" operator="out"/>
<feColorMatrix type="matrix" values="0 0 0 0 0 0 0 0 0 0 0 0 0 0 0 0 0 0 0.3 0"/>
<feBlend mode="normal" in2="BackgroundImageFix" result="effect1_dropShadow_44_50"/>
<feBlend mode="normal" in="SourceGraphic" in2="effect1_dropShadow_44_50" result="shape"/>
</filter>
<clipPath id="clip0_44_50">
<rect width="331" height="268" fill="white"/>
</clipPath>
</defs>
</svg>
