<svg width="185" height="199" viewBox="0 0 185 199" fill="none" xmlns="http://www.w3.org/2000/svg">
<g filter="url(#filter0_d_44_49)">
<path d="M53.9272 174.489C50.0361 174.614 46.223 173.38 43.1421 171C40.0612 168.62 37.9047 165.242 37.0425 161.446L12.4266 52.8184C11.4501 48.5831 12.1648 44.1339 14.4186 40.4175C16.6724 36.701 20.2873 34.0107 24.4944 32.9188L116.957 8.55304C119.11 7.98555 121.354 7.85297 123.559 8.16306C125.764 8.47315 127.885 9.2197 129.797 10.359C131.71 11.4984 133.377 13.0076 134.699 14.7986C136.022 16.5895 136.974 18.6262 137.501 20.7895L164.013 129.851C165.041 134.139 164.343 138.66 162.068 142.437C159.794 146.215 156.125 148.947 151.855 150.045L57.5016 173.976C56.3319 174.274 55.1336 174.446 53.9272 174.489Z" fill="#E1B972"/>
</g>
<path d="M43.3256 76.2339C42.128 76.274 40.9585 75.8656 40.0462 75.0887C39.1338 74.3119 38.5442 73.2225 38.3928 72.0338C38.2415 70.8451 38.5392 69.6427 39.2277 68.662C39.9162 67.6812 40.946 66.9928 42.1154 66.7314L116.971 50.0245C117.587 49.8869 118.225 49.8721 118.847 49.9809C119.469 50.0896 120.064 50.3199 120.597 50.6585C121.13 50.997 121.591 51.4373 121.954 51.9541C122.317 52.471 122.575 53.0543 122.713 53.6707C122.85 54.2871 122.865 54.9246 122.756 55.5467C122.647 56.1689 122.417 56.7635 122.079 57.2967C121.74 57.8299 121.3 58.2911 120.783 58.6541C120.266 59.0171 119.683 59.2748 119.066 59.4124L44.2126 76.1208C43.9217 76.1866 43.6253 76.2249 43.3272 76.2354L43.3256 76.2339Z" fill="#30302A"/>
<path d="M51.1947 104.834C50.0176 104.872 48.8672 104.478 47.9615 103.725C47.0559 102.972 46.4579 101.913 46.2809 100.748C46.1039 99.5841 46.3603 98.3952 47.0013 97.4072C47.6424 96.4192 48.6236 95.7007 49.7591 95.3879L120.097 76.0285C120.709 75.8527 121.349 75.8 121.981 75.8734C122.613 75.9468 123.224 76.1449 123.779 76.4562C124.334 76.7674 124.822 77.1857 125.214 77.6868C125.606 78.1879 125.895 78.7618 126.064 79.3753C126.233 79.9888 126.278 80.6296 126.198 81.2608C126.117 81.892 125.912 82.5009 125.595 83.0523C125.277 83.6037 124.853 84.0867 124.348 84.4732C123.842 84.8597 123.265 85.1421 122.65 85.304L52.312 104.663C51.949 104.763 51.5756 104.82 51.1995 104.833L51.1947 104.834Z" fill="#30302A"/>
<path d="M56.9797 132.568C55.7929 132.607 54.6337 132.205 53.7253 131.44C52.8169 130.676 52.2235 129.602 52.0592 128.426C51.895 127.25 52.1716 126.054 52.8358 125.07C53.5 124.086 54.5047 123.382 55.6568 123.094L103.687 111.156C104.925 110.848 106.234 111.045 107.327 111.702C108.42 112.36 109.207 113.425 109.515 114.662C109.823 115.9 109.626 117.21 108.969 118.302C108.311 119.395 107.246 120.182 106.008 120.49L57.9779 132.428C57.651 132.509 57.3165 132.556 56.9797 132.568Z" fill="#30302A"/>
<path d="M133.174 145.326C133.155 145.383 133.114 145.428 133.05 145.462C132.986 145.497 132.913 145.514 132.83 145.514C132.754 145.514 132.692 145.494 132.643 145.453C132.624 145.411 132.616 145.37 132.62 145.328C132.627 145.283 132.649 145.241 132.687 145.203C132.702 145.188 132.711 145.171 132.715 145.152C132.719 145.126 132.721 145.102 132.721 145.079C132.724 145.03 132.724 144.973 132.72 144.909C132.72 144.841 132.718 144.775 132.714 144.711C132.713 144.643 132.713 144.587 132.713 144.542C132.709 144.493 132.707 144.464 132.707 144.457C132.699 144.306 132.685 144.168 132.666 144.044C132.651 143.916 132.625 143.748 132.591 143.541C132.575 143.443 132.554 143.347 132.528 143.252C132.501 143.158 132.474 143.064 132.447 142.97C132.428 142.898 132.407 142.829 132.384 142.761C132.362 142.693 132.358 142.621 132.372 142.546C132.304 142.448 132.268 142.39 132.264 142.371C132.264 142.348 132.268 142.31 132.275 142.258L132.213 142.23C132.167 142.071 132.133 141.962 132.11 141.902C132.087 141.834 132.068 141.785 132.053 141.755C132.038 141.725 132.021 141.685 132.002 141.636C131.979 141.584 131.943 141.491 131.893 141.36C131.867 141.311 131.863 141.277 131.881 141.258C131.9 141.231 131.894 141.203 131.864 141.173C131.834 141.143 131.79 141.066 131.733 140.941C131.68 140.813 131.623 140.67 131.562 140.512C131.505 140.35 131.454 140.209 131.408 140.088C131.37 140.126 131.331 140.181 131.29 140.253C131.248 140.317 131.207 140.423 131.166 140.57C131.11 140.732 131.069 140.857 131.043 140.944C131.013 141.027 130.981 141.093 130.948 141.142C130.91 141.188 130.85 141.233 130.767 141.279C130.669 141.249 130.588 141.194 130.523 141.115C130.459 141.029 130.447 140.938 130.488 140.844C130.496 140.829 130.52 140.774 130.561 140.68C130.603 140.585 130.649 140.481 130.702 140.368C130.754 140.255 130.799 140.16 130.837 140.085C130.874 140.002 130.891 139.966 130.887 139.977C130.951 139.867 131.013 139.756 131.073 139.643C131.133 139.529 131.189 139.412 131.241 139.291C131.249 139.284 131.273 139.255 131.314 139.206C131.359 139.153 131.406 139.095 131.455 139.03C131.508 138.962 131.553 138.902 131.59 138.849C131.632 138.792 131.654 138.754 131.658 138.736C131.729 138.656 131.816 138.588 131.917 138.531C132.023 138.47 132.091 138.451 132.121 138.474C132.159 138.496 132.196 138.5 132.234 138.485C132.268 138.466 132.306 138.466 132.347 138.484L132.528 138.461C132.536 138.453 132.571 138.474 132.636 138.523C132.7 138.564 132.753 138.602 132.795 138.635C132.844 138.669 132.908 138.741 132.988 138.85C133.067 138.951 133.145 139.066 133.221 139.194C133.297 139.314 133.359 139.422 133.408 139.516C133.462 139.606 133.484 139.655 133.477 139.663C133.519 139.719 133.56 139.783 133.602 139.855C133.644 139.926 133.687 139.992 133.733 140.052C133.737 140.056 133.757 140.092 133.795 140.159C133.837 140.223 133.883 140.299 133.932 140.385C133.981 140.472 134.023 140.547 134.057 140.611C134.091 140.675 134.11 140.705 134.114 140.701C134.205 140.822 134.298 140.967 134.393 141.136C134.488 141.305 134.581 141.484 134.672 141.672C134.759 141.857 134.843 142.034 134.922 142.203C135.002 142.365 135.076 142.503 135.145 142.615C135.152 142.668 135.171 142.717 135.202 142.762C135.232 142.807 135.247 142.86 135.247 142.921C135.244 142.977 135.231 143.032 135.208 143.085C135.19 143.134 135.158 143.166 135.113 143.181C135.06 143.204 135.007 143.216 134.954 143.216C134.905 143.212 134.854 143.195 134.801 143.165C134.798 143.147 134.771 143.082 134.721 142.973C134.672 142.864 134.613 142.738 134.545 142.595C134.48 142.448 134.419 142.316 134.362 142.2C134.305 142.075 134.267 141.996 134.248 141.962C134.23 141.928 134.188 141.865 134.123 141.77C134.063 141.673 134 141.569 133.936 141.46C133.871 141.343 133.827 141.247 133.805 141.172C133.789 141.142 133.748 141.082 133.679 140.991C133.607 140.897 133.537 140.79 133.469 140.67C133.454 140.639 133.42 140.583 133.367 140.5C133.31 140.414 133.257 140.331 133.207 140.252C133.158 140.165 133.131 140.116 133.128 140.105L132.724 139.479C132.697 139.422 132.64 139.339 132.553 139.23C132.466 139.114 132.383 139.012 132.303 138.926C132.292 138.922 132.279 138.92 132.264 138.92C132.249 138.913 132.239 138.896 132.235 138.869C132.175 138.93 132.117 138.996 132.061 139.068C132.004 139.132 131.948 139.2 131.892 139.272C131.835 139.344 131.779 139.423 131.723 139.51C131.67 139.578 131.667 139.646 131.712 139.714C131.731 139.733 131.761 139.789 131.803 139.883C131.841 139.974 131.885 140.081 131.934 140.205C131.984 140.322 132.031 140.437 132.077 140.55C132.119 140.659 132.149 140.742 132.168 140.799C132.21 140.938 132.258 141.075 132.311 141.211C132.361 141.343 132.412 141.477 132.465 141.612C132.507 141.691 132.557 141.808 132.614 141.962C132.667 142.113 132.722 142.277 132.779 142.454C132.837 142.631 132.89 142.808 132.94 142.985C132.989 143.155 133.027 143.302 133.054 143.426C133.081 143.565 133.102 143.692 133.118 143.805C133.133 143.91 133.149 144.02 133.164 144.133C133.176 144.242 133.19 144.376 133.205 144.534C133.221 144.647 133.227 144.789 133.224 144.958C133.22 145.128 133.204 145.251 133.174 145.326ZM137.309 140.346C137.298 140.493 137.245 140.625 137.152 140.742C137.061 140.856 136.947 140.941 136.807 140.998C136.664 141.051 136.515 141.065 136.361 141.039C136.213 141.021 136.078 140.968 135.953 140.882C135.824 140.792 135.68 140.653 135.521 140.465C135.385 140.307 135.285 140.113 135.22 139.883C135.151 139.65 135.116 139.416 135.115 139.182C135.118 138.945 135.155 138.745 135.226 138.582C135.245 138.488 135.275 138.424 135.316 138.39C135.358 138.348 135.423 138.289 135.514 138.213C135.611 138.138 135.692 138.09 135.756 138.071C135.824 138.048 135.89 138.042 135.954 138.054C136.067 138.053 136.162 138.072 136.237 138.109C136.309 138.143 136.372 138.186 136.425 138.239C136.493 138.336 136.539 138.495 136.562 138.713C136.585 138.924 136.558 139.145 136.479 139.375C136.423 139.485 136.344 139.587 136.243 139.682C136.141 139.776 136.036 139.833 135.927 139.853C135.825 139.894 135.784 139.947 135.803 140.011C135.818 140.072 135.892 140.186 136.025 140.356C136.153 140.514 136.271 140.608 136.376 140.637C136.478 140.663 136.567 140.65 136.642 140.597C136.732 140.536 136.802 140.489 136.851 140.455C136.9 140.413 136.937 140.341 136.963 140.239C136.985 140.141 137.002 140.083 137.013 140.064C137.021 140.041 137.025 140.022 137.025 140.007C137.025 139.985 137.024 139.936 137.024 139.86C137.024 139.807 137.026 139.768 137.029 139.741C137.029 139.711 137.039 139.687 137.057 139.668C137.076 139.649 137.103 139.641 137.136 139.645C137.167 139.645 137.193 139.641 137.216 139.633C137.253 139.595 137.283 139.61 137.306 139.678C137.333 139.742 137.348 139.836 137.353 139.961C137.353 140.081 137.338 140.21 137.309 140.346ZM136.1 139.156C136.122 139.096 136.139 139.026 136.15 138.947C136.157 138.864 136.155 138.786 136.143 138.715C136.132 138.636 136.111 138.581 136.081 138.551C136.028 138.498 135.96 138.48 135.877 138.495C135.79 138.507 135.711 138.575 135.64 138.7C135.61 138.752 135.591 138.828 135.584 138.926C135.573 139.02 135.57 139.118 135.574 139.22C135.582 139.318 135.591 139.403 135.603 139.475C135.618 139.542 135.633 139.576 135.648 139.576C135.679 139.584 135.726 139.567 135.79 139.525C135.85 139.479 135.91 139.423 135.97 139.355C136.034 139.283 136.077 139.217 136.1 139.156ZM140.254 137.743C140.239 137.759 140.216 137.778 140.186 137.8C140.16 137.819 140.131 137.829 140.101 137.829C140.086 137.844 140.054 137.865 140.005 137.891C139.956 137.918 139.909 137.939 139.864 137.954C139.811 137.977 139.73 137.998 139.621 138.017C139.508 138.033 139.391 138.044 139.27 138.052C139.15 138.06 139.042 138.063 138.948 138.059C138.857 138.052 138.801 138.037 138.778 138.014C138.759 137.996 138.74 137.996 138.722 138.015C138.722 138.015 138.71 138.015 138.688 138.015C138.661 138.011 138.64 138.002 138.625 137.987C138.587 137.949 138.55 137.949 138.512 137.987C138.512 137.987 138.507 138.046 138.496 138.163C138.485 138.279 138.48 138.413 138.48 138.564C138.481 138.775 138.48 138.932 138.476 139.034C138.473 139.128 138.456 139.19 138.426 139.221C138.396 139.251 138.351 139.274 138.29 139.289C138.23 139.304 138.17 139.312 138.109 139.312C138.049 139.305 138.004 139.286 137.973 139.256C137.973 139.256 137.968 139.175 137.956 139.013C137.948 138.847 137.951 138.666 137.965 138.47L137.968 137.751L137.691 137.6C137.604 137.566 137.513 137.532 137.419 137.499C137.324 137.458 137.247 137.422 137.186 137.392C137.077 137.374 137.013 137.359 136.994 137.347C136.975 137.329 136.958 137.282 136.942 137.206C136.942 137.146 136.948 137.102 136.959 137.076C136.97 137.042 137.014 137.017 137.089 137.002C137.111 136.979 137.174 136.981 137.276 137.007C137.374 137.029 137.476 137.063 137.581 137.108C137.687 137.145 137.755 137.179 137.785 137.209C137.846 137.269 137.893 137.271 137.927 137.214C137.961 137.157 137.992 137.054 138.022 136.903C138.025 136.816 138.027 136.746 138.027 136.693C138.023 136.637 138.021 136.608 138.021 136.608C138.021 136.586 138.03 136.527 138.049 136.433C138.063 136.335 138.08 136.235 138.098 136.133C138.117 136.031 138.132 135.967 138.143 135.941C138.15 135.888 138.184 135.854 138.245 135.838C138.301 135.819 138.363 135.817 138.431 135.832C138.495 135.843 138.548 135.869 138.59 135.911C138.635 135.956 138.66 136.003 138.664 136.052C138.668 136.101 138.653 136.184 138.619 136.301C138.601 136.418 138.584 136.522 138.57 136.612C138.559 136.699 138.548 136.793 138.537 136.895C138.526 136.99 138.515 137.114 138.504 137.269L138.477 137.535L138.72 137.596C138.762 137.607 138.82 137.624 138.896 137.646C138.975 137.665 139.035 137.668 139.077 137.657C139.13 137.664 139.214 137.662 139.331 137.651C139.448 137.639 139.559 137.625 139.665 137.61C139.77 137.587 139.827 137.571 139.834 137.564C139.849 137.549 139.872 137.537 139.902 137.53C139.932 137.522 139.968 137.513 140.01 137.501C140.07 137.501 140.123 137.516 140.168 137.546C140.217 137.572 140.251 137.606 140.27 137.647C140.289 137.681 140.284 137.713 140.254 137.743ZM141.159 136.537C141.136 136.575 141.101 136.618 141.052 136.667C140.999 136.713 140.95 136.751 140.905 136.781C140.86 136.804 140.832 136.809 140.82 136.798C140.802 136.779 140.783 136.779 140.764 136.798C140.764 136.798 140.747 136.8 140.713 136.804C140.683 136.804 140.643 136.814 140.594 136.833C140.507 136.814 140.434 136.775 140.373 136.715C140.309 136.651 140.226 136.534 140.123 136.365C140.04 136.26 139.966 136.115 139.901 135.93C139.836 135.738 139.783 135.531 139.74 135.308C139.698 135.086 139.673 134.873 139.665 134.669C139.66 134.462 139.675 134.292 139.708 134.16C139.708 134.055 139.743 133.962 139.815 133.883C139.886 133.803 139.975 133.748 140.08 133.718C140.137 133.699 140.204 133.691 140.284 133.694C140.363 133.698 140.444 133.707 140.527 133.722C140.61 133.737 140.687 133.757 140.759 133.783C140.812 133.813 140.856 133.845 140.89 133.879C140.924 133.905 140.961 133.943 141.003 133.992C141.049 134.037 141.111 134.11 141.191 134.212C141.24 134.298 141.306 134.398 141.39 134.511C141.477 134.62 141.556 134.71 141.628 134.781C141.692 134.86 141.751 134.904 141.804 134.911C141.86 134.915 141.9 134.879 141.922 134.803C141.945 134.735 141.978 134.682 142.024 134.644C142.065 134.603 142.108 134.582 142.153 134.582C142.202 134.578 142.25 134.598 142.295 134.643C142.341 134.689 142.365 134.758 142.369 134.852C142.373 134.939 142.361 135.032 142.331 135.13C142.301 135.22 142.258 135.294 142.201 135.351C142.16 135.392 142.096 135.408 142.009 135.397C141.919 135.382 141.822 135.354 141.72 135.313C141.618 135.264 141.522 135.217 141.431 135.172L141.267 135.077L141.257 135.552C141.261 135.654 141.262 135.752 141.258 135.846C141.255 135.933 141.257 135.991 141.265 136.022C141.28 136.074 141.278 136.144 141.26 136.231C141.245 136.314 141.211 136.416 141.159 136.537ZM140.841 136.187C140.867 136.085 140.885 135.957 140.896 135.802C140.903 135.644 140.903 135.482 140.895 135.316C140.883 135.146 140.865 134.997 140.842 134.869C140.819 134.718 140.786 134.588 140.745 134.479C140.703 134.37 140.655 134.274 140.602 134.191C140.545 134.165 140.478 134.146 140.398 134.135C140.315 134.12 140.259 134.124 140.229 134.147C140.146 134.23 140.111 134.372 140.123 134.572C140.135 134.764 140.158 134.964 140.193 135.171C140.196 135.205 140.206 135.256 140.221 135.324C140.237 135.392 140.25 135.458 140.262 135.522C140.273 135.578 140.281 135.616 140.285 135.635C140.289 135.661 140.31 135.727 140.348 135.832C140.386 135.93 140.426 136.03 140.467 136.132C140.505 136.23 140.536 136.29 140.559 136.313C140.581 136.335 140.608 136.358 140.638 136.38C140.672 136.399 140.708 136.397 140.745 136.374C140.783 136.351 140.815 136.289 140.841 136.187ZM144.827 132.957C144.785 132.969 144.748 132.988 144.714 133.014C144.684 133.037 144.652 133.061 144.618 133.088C144.565 133.088 144.516 133.085 144.471 133.077C144.425 133.062 144.38 133.04 144.335 133.01C144.308 132.991 144.291 132.967 144.284 132.936C144.276 132.906 144.27 132.878 144.266 132.852C144.278 132.84 144.293 132.829 144.311 132.817C144.326 132.802 144.342 132.787 144.357 132.772C144.371 132.659 144.375 132.549 144.367 132.444C144.359 132.331 144.347 132.218 144.332 132.105C144.312 131.98 144.287 131.862 144.257 131.749C144.223 131.632 144.177 131.519 144.12 131.41C144.097 131.364 144.071 131.323 144.04 131.285C144.006 131.244 143.982 131.201 143.966 131.156C143.943 131.088 143.915 131.026 143.881 130.969C143.847 130.905 143.814 130.843 143.784 130.783C143.716 130.828 143.666 130.864 143.632 130.891C143.598 130.91 143.56 130.921 143.519 130.925C143.477 130.929 143.417 130.933 143.338 130.937C143.281 130.888 143.249 130.845 143.241 130.807C143.23 130.766 143.244 130.709 143.286 130.637C143.301 130.607 143.318 130.579 143.336 130.552C143.351 130.522 143.37 130.496 143.393 130.473C143.43 130.428 143.47 130.384 143.511 130.343C143.552 130.301 143.597 130.259 143.646 130.218C143.68 130.191 143.716 130.166 143.754 130.144C143.791 130.121 143.829 130.098 143.866 130.075C143.912 130.053 143.961 130.034 144.013 130.018C144.062 129.999 144.109 129.978 144.155 129.956C144.185 129.933 144.219 129.918 144.256 129.91C144.294 129.902 144.335 129.895 144.381 129.887C144.49 129.86 144.595 129.86 144.697 129.886C144.795 129.908 144.882 129.957 144.958 130.032C145.075 130.149 145.168 130.275 145.237 130.41C145.29 130.5 145.341 130.593 145.39 130.687C145.443 130.777 145.495 130.869 145.544 130.963C145.578 131.027 145.61 131.09 145.641 131.15C145.671 131.21 145.707 131.268 145.749 131.325C145.783 131.374 145.821 131.423 145.862 131.471C145.904 131.52 145.946 131.573 145.987 131.629C145.976 131.648 145.965 131.667 145.954 131.686C145.946 131.701 145.937 131.722 145.926 131.748C145.869 131.775 145.811 131.803 145.751 131.834C145.687 131.86 145.615 131.853 145.536 131.812C145.528 131.804 145.52 131.797 145.513 131.789C145.505 131.774 145.494 131.759 145.479 131.744C145.467 131.733 145.456 131.722 145.445 131.71C145.433 131.699 145.422 131.688 145.411 131.677C145.35 131.601 145.295 131.524 145.246 131.445C145.193 131.362 145.145 131.278 145.103 131.191C145.058 131.086 145.008 130.988 144.955 130.898C144.898 130.803 144.843 130.711 144.79 130.621C144.768 130.576 144.741 130.534 144.711 130.497C144.68 130.452 144.65 130.41 144.62 130.373C144.582 130.328 144.525 130.29 144.45 130.26C144.382 130.268 144.32 130.285 144.263 130.312C144.203 130.334 144.145 130.367 144.088 130.408C144.107 130.442 144.122 130.484 144.134 130.533C144.138 130.544 144.147 130.557 144.162 130.572C144.174 130.583 144.177 130.595 144.174 130.606C144.166 130.644 144.172 130.68 144.191 130.714C144.21 130.74 144.231 130.768 144.254 130.798C144.269 130.821 144.282 130.845 144.293 130.872C144.305 130.898 144.314 130.926 144.322 130.956C144.322 130.986 144.334 131.017 144.356 131.047C144.375 131.073 144.396 131.101 144.419 131.131C144.468 131.195 144.51 131.263 144.544 131.335C144.578 131.406 144.612 131.489 144.647 131.583C144.654 131.628 144.666 131.674 144.681 131.719C144.692 131.76 144.706 131.804 144.721 131.849C144.732 131.868 144.74 131.89 144.744 131.917C144.744 131.939 144.75 131.964 144.761 131.99C144.78 132.047 144.799 132.107 144.818 132.171C144.834 132.231 144.841 132.291 144.842 132.352C144.842 132.45 144.844 132.55 144.848 132.652C144.856 132.75 144.849 132.851 144.827 132.957ZM147.472 130.441C147.427 130.494 147.383 130.53 147.342 130.549C147.297 130.565 147.238 130.582 147.167 130.601C147.02 130.62 146.893 130.619 146.788 130.596C146.682 130.567 146.599 130.518 146.538 130.45C146.512 130.409 146.482 130.379 146.448 130.36C146.417 130.338 146.402 130.326 146.402 130.326C146.361 130.33 146.342 130.326 146.346 130.315C146.346 130.3 146.34 130.283 146.328 130.264C146.351 130.227 146.334 130.202 146.277 130.191C146.236 130.172 146.173 130.099 146.09 129.971C146.006 129.835 145.938 129.7 145.885 129.564C145.862 129.504 145.833 129.423 145.799 129.321C145.769 129.216 145.742 129.107 145.719 128.994C145.692 128.877 145.677 128.779 145.673 128.7C145.661 128.522 145.664 128.379 145.682 128.27C145.701 128.153 145.736 128.038 145.789 127.924C145.834 127.818 145.871 127.747 145.901 127.709C145.931 127.671 146.001 127.646 146.11 127.635C146.227 127.57 146.332 127.54 146.427 127.543C146.521 127.539 146.63 127.572 146.755 127.644C146.895 127.722 147.035 127.843 147.175 128.004C147.315 128.158 147.442 128.413 147.556 128.767C147.633 128.985 147.673 129.168 147.677 129.315C147.685 129.458 147.682 129.62 147.668 129.801C147.657 129.934 147.638 130.047 147.612 130.141C147.586 130.235 147.539 130.336 147.472 130.441ZM147.247 129.316C147.209 129.128 147.163 128.966 147.11 128.83C147.057 128.687 146.969 128.529 146.848 128.356C146.814 128.307 146.765 128.255 146.7 128.198C146.632 128.138 146.564 128.089 146.496 128.052C146.432 128.011 146.387 127.999 146.36 128.018C146.293 128.049 146.238 128.104 146.197 128.183C146.152 128.259 146.131 128.37 146.136 128.517C146.148 128.656 146.174 128.8 146.216 128.947C146.262 129.09 146.321 129.239 146.393 129.393C146.466 129.547 146.547 129.707 146.638 129.873C146.744 130.054 146.856 130.161 146.973 130.194C147.094 130.224 147.186 130.169 147.25 130.029C147.31 129.886 147.309 129.648 147.247 129.316ZM149.036 128.798C149.017 128.817 148.987 128.828 148.946 128.832C148.908 128.832 148.866 128.825 148.821 128.81C148.772 128.791 148.732 128.771 148.702 128.748C148.683 128.73 148.668 128.665 148.656 128.556C148.645 128.439 148.635 128.294 148.626 128.121C148.618 127.947 148.612 127.772 148.608 127.595L148.583 127.086L148.209 126.917C148.134 126.88 148.049 126.84 147.954 126.799C147.86 126.751 147.775 126.708 147.699 126.67C147.624 126.625 147.577 126.593 147.558 126.574C147.501 126.548 147.457 126.516 147.427 126.479C147.393 126.437 147.374 126.403 147.37 126.377C147.336 126.351 147.344 126.313 147.393 126.264C147.441 126.215 147.494 126.188 147.551 126.184C147.588 126.161 147.641 126.157 147.709 126.172C147.773 126.183 147.841 126.206 147.913 126.239C147.985 126.266 148.051 126.297 148.111 126.335C148.123 126.346 148.158 126.371 148.219 126.408C148.279 126.438 148.338 126.466 148.395 126.492L148.627 126.644L148.615 126.373C148.611 126.316 148.611 126.26 148.614 126.203C148.622 126.143 148.618 126.105 148.602 126.09C148.618 126.075 148.625 126.03 148.625 125.954C148.621 125.875 148.618 125.783 148.618 125.677C148.61 125.564 148.614 125.462 148.628 125.371C148.643 125.273 148.658 125.217 148.673 125.202C148.711 125.156 148.773 125.139 148.859 125.15C148.942 125.157 149.014 125.187 149.075 125.24C149.101 125.266 149.12 125.353 149.132 125.5C149.144 125.647 149.131 125.837 149.095 126.071C149.072 126.215 149.06 126.33 149.056 126.416C149.053 126.503 149.042 126.628 149.024 126.79C149.209 126.853 149.377 126.908 149.528 126.952C149.682 126.993 149.846 127.017 150.02 127.024C150.099 127.02 150.173 127.018 150.241 127.018C150.312 127.014 150.348 127.012 150.348 127.012C150.359 126.993 150.384 126.987 150.421 126.994C150.459 126.994 150.491 127.011 150.518 127.045C150.556 127.06 150.575 127.086 150.575 127.124C150.575 127.154 150.567 127.184 150.552 127.215C150.537 127.245 150.532 127.269 150.536 127.288C150.513 127.318 150.485 127.339 150.451 127.351C150.417 127.355 150.398 127.366 150.395 127.385C150.387 127.408 150.325 127.428 150.208 127.448C150.095 127.463 149.974 127.467 149.846 127.46C149.793 127.46 149.718 127.453 149.62 127.438C149.522 127.416 149.439 127.401 149.371 127.394C149.303 127.379 149.242 127.368 149.19 127.361C149.137 127.353 149.099 127.346 149.076 127.338C149.076 127.369 149.079 127.446 149.083 127.57C149.083 127.691 149.088 127.849 149.096 128.046C149.093 128.336 149.09 128.528 149.086 128.623C149.083 128.709 149.066 128.768 149.036 128.798Z" fill="#222222"/>
<defs>
<filter id="filter0_d_44_49" x="0" y="0" width="184.476" height="198.498" filterUnits="userSpaceOnUse" color-interpolation-filters="sRGB">
<feFlood flood-opacity="0" result="BackgroundImageFix"/>
<feColorMatrix in="SourceAlpha" type="matrix" values="0 0 0 0 0 0 0 0 0 0 0 0 0 0 0 0 0 0 127 0" result="hardAlpha"/>
<feOffset dx="4" dy="8"/>
<feGaussianBlur stdDeviation="8"/>
<feComposite in2="hardAlpha" operator="out"/>
<feColorMatrix type="matrix" values="0 0 0 0 0 0 0 0 0 0 0 0 0 0 0 0 0 0 0.3 0"/>
<feBlend mode="normal" in2="BackgroundImageFix" result="effect1_dropShadow_44_49"/>
<feBlend mode="normal" in="SourceGraphic" in2="effect1_dropShadow_44_49" result="shape"/>
</filter>
</defs>
</svg>
