<svg width="32" height="24" viewBox="0 0 32 24" fill="none" xmlns="http://www.w3.org/2000/svg">
<g clip-path="url(#clip0_23_71)">
<path d="M2.18182 23.9998H7.27273V11.6362L0 6.18164V21.818C0 23.0253 0.978182 23.9998 2.18182 23.9998Z" fill="#4285F4"/>
<path d="M24.7273 23.9998H29.8182C31.0255 23.9998 32 23.0216 32 21.818V6.18164L24.7273 11.6362" fill="#34A853"/>
<path d="M24.7273 2.18215V11.6367L32 6.18215V3.27306C32 0.574876 28.92 -0.963306 26.7637 0.654875" fill="#FBBC04"/>
<path d="M7.27271 11.6362V2.18164L16 8.7271L24.7273 2.18164V11.6362L16 18.1816" fill="#EA4335"/>
<path d="M0 3.27306V6.18215L7.27273 11.6367V2.18215L5.23636 0.654875C3.07636 -0.963306 0 0.574876 0 3.27306Z" fill="#C5221F"/>
</g>
<defs>
<clipPath id="clip0_23_71">
<rect width="32" height="24" fill="white"/>
</clipPath>
</defs>
</svg>
