<svg width="519" height="90" viewBox="0 0 519 90" fill="none" xmlns="http://www.w3.org/2000/svg">
<path d="M158.379 61C159.575 61 160.459 61.4951 161.125 62.5898C161.833 63.7537 162.239 65.4482 162.239 67.7695C162.239 70.4783 161.715 73.2822 160.65 76.1855L160.648 76.1914C159.604 79.0925 158.093 81.8763 156.107 84.543L155.824 84.9229L155.939 85.3828C155.973 85.516 156.021 85.6424 156.077 85.7637L156.076 85.7646C156.425 86.6027 156.915 87.3076 157.591 87.7861L157.61 87.7998L157.63 87.8125C158.298 88.2402 159.047 88.4502 159.85 88.4502C160.53 88.4501 161.171 88.3212 161.767 88.0664C161.835 88.1757 161.892 88.2942 161.938 88.4238C161.299 88.8046 160.571 89 159.729 89C158.984 89 158.329 88.8359 157.745 88.5205C157.138 88.1925 156.632 87.7531 156.221 87.1953C156.107 87.0256 155.994 86.8552 155.881 86.6855L155.189 85.6475L154.326 86.5488C152.759 88.1874 151.15 88.9483 149.483 88.9951C149.466 88.9355 149.449 88.8449 149.449 88.71C149.449 88.5914 149.464 88.5206 149.476 88.4844C149.481 88.4662 149.487 88.457 149.489 88.4531L149.518 88.4189C150.449 88.4141 151.371 88.0591 152.265 87.4785C153.17 86.8897 154.007 86.1013 154.78 85.1348L155.091 84.7461L154.969 84.2637C154.705 83.2242 154.5 81.9689 154.361 80.4902L154.307 79.8428C154.169 78.0558 154.1 75.923 154.1 73.4404C154.1 71.6671 154.12 70.1681 154.159 68.9424C154.198 67.724 154.277 66.7231 154.39 65.9316C154.505 65.127 154.645 64.4733 154.804 63.96C154.98 63.4332 155.196 62.9718 155.447 62.5703L155.452 62.5615C155.809 61.9773 156.215 61.6027 156.655 61.3799C157.171 61.13 157.74 61 158.379 61ZM158.379 61.5801C157.776 61.5801 157.216 61.7637 156.737 62.1367C156.273 62.4985 155.937 62.9985 155.692 63.5615L155.686 63.5752C155.451 64.1407 155.264 64.8238 155.116 65.6045L155.114 65.6152L155.113 65.626C154.984 66.4017 154.891 67.4258 154.83 68.6816V68.6982C154.79 69.9535 154.769 71.5954 154.769 73.6201C154.769 77.0783 154.899 79.8664 155.167 81.9668L155.535 84.8516L157.019 82.3506C158.513 79.8342 159.647 77.3534 160.413 74.9092C161.18 72.4634 161.569 70.0725 161.569 67.7402C161.569 66.0331 161.378 64.6053 160.92 63.541H160.921C160.458 62.4444 159.641 61.5801 158.379 61.5801Z" stroke="black" stroke-width="2"/>
<path d="M145.648 79.0498L145.452 78.7852C145.354 78.6522 145.248 78.5262 145.139 78.4043L145.648 78.9141V76.0811C145.77 76.0686 145.896 76.0596 146.028 76.0596C146.149 76.0596 146.265 76.0673 146.378 76.0781V84.0596C146.378 85.2005 146.547 86.2168 146.976 87.0205L146.985 87.0381L146.996 87.0557C147.518 87.9456 148.373 88.3718 149.368 88.415C149.393 88.5152 149.408 88.6226 149.408 88.7402C149.408 88.8414 149.386 88.9215 149.341 88.999C149.337 88.9991 149.332 89 149.328 89C148.499 89 147.888 88.8148 147.434 88.5098C146.983 88.2069 146.606 87.7318 146.335 87.0088L145.672 85.2412L144.582 86.7822C144.091 87.4757 143.479 88.0214 142.736 88.4277C142.034 88.8035 141.238 89 140.328 89C139.322 89 138.468 88.7855 137.737 88.3828C137.006 87.9483 136.404 87.3568 135.928 86.5918L135.094 85.252L134.238 86.5771C133.191 88.1994 131.909 88.9464 130.352 88.9951C130.335 88.9355 130.318 88.8449 130.318 88.71C130.318 88.5708 130.332 88.4794 130.346 88.4248C130.36 88.4236 130.377 88.4199 130.398 88.4199C131.434 88.4199 132.337 87.9096 133.097 87.126L133.096 87.125C133.872 86.3251 134.486 85.2907 134.961 84.0605L135.042 83.8516L135.025 83.6289C135.007 83.3727 134.998 83.1164 134.998 82.8604C134.998 81.4745 135.271 80.2837 135.79 79.2637C136.317 78.2271 137.014 77.4342 137.876 76.8574C138.743 76.2906 139.73 76 140.868 76C141.431 76 141.992 76.1119 142.558 76.3447L142.581 76.3545C143.145 76.5703 143.592 76.8577 143.941 77.207L144.725 77.9902C144.387 77.6888 144.012 77.4285 143.599 77.2129H143.6C142.843 76.798 142.038 76.5801 141.198 76.5801C140.149 76.5801 139.186 76.8642 138.347 77.4492C137.533 78.0166 136.906 78.785 136.459 79.7217C136.002 80.6601 135.788 81.7151 135.788 82.8604C135.788 84.4225 136.14 85.7849 136.96 86.835L136.969 86.8457L136.977 86.8564C137.847 87.9114 139.043 88.4199 140.448 88.4199C141.963 88.4199 143.258 87.8893 144.227 86.792L144.227 86.791C145.2 85.7122 145.648 84.3299 145.648 82.7402V79.0498Z" stroke="black" stroke-width="2"/>
<path d="M126.851 76.21C126.98 76.21 127.106 76.2189 127.23 76.2315V84.0596C127.23 85.2007 127.399 86.2168 127.828 87.0206L127.837 87.0381L127.848 87.0557C128.369 87.9456 129.225 88.3718 130.22 88.4151C130.245 88.5153 130.26 88.6227 130.26 88.7403C130.26 88.8415 130.237 88.9215 130.192 88.9991C130.188 88.9992 130.184 89.0001 130.18 89.0001C129.366 89 128.761 88.8232 128.308 88.5303C127.859 88.2402 127.483 87.7873 127.207 87.1046L126.507 85.3751L125.454 86.9161C124.99 87.5951 124.401 88.1088 123.678 88.4717C122.962 88.8111 122.079 89.0001 121 89.0001C119.872 89 118.995 88.7605 118.317 88.3399C117.645 87.9226 117.099 87.2836 116.697 86.3614L115.886 84.4981L114.904 86.2774C114.622 86.7885 114.316 87.1993 113.993 87.5225C113.543 87.9729 113.016 88.3348 112.404 88.6065L112.394 88.6104C111.886 88.8431 111.33 88.9728 110.72 88.9952C110.682 88.9152 110.66 88.8245 110.66 88.71C110.66 88.5821 110.686 88.4928 110.727 88.42C110.731 88.4199 110.736 88.42 110.74 88.42C111.369 88.42 111.983 88.2254 112.566 87.9092C113.194 87.569 113.745 87.0667 114.229 86.4444L114.24 86.4307L114.25 86.4171C114.923 85.4889 115.374 84.4126 115.619 83.209C115.871 82.07 116 80.9535 116 79.8604V76.2305C116.121 76.2181 116.248 76.21 116.38 76.21C116.498 76.21 116.614 76.2177 116.73 76.2296V82.3497C116.73 84.1542 117.012 85.6785 117.751 86.7335L117.758 86.7432C118.553 87.8502 119.778 88.3301 121.21 88.3301C122.92 88.3301 124.325 87.6833 125.253 86.3272C126.134 85.0394 126.5 83.2325 126.5 81.0596V76.2276C126.612 76.2171 126.729 76.21 126.851 76.21Z" stroke="black" stroke-width="2"/>
<path d="M107.182 79.0499L106.985 78.7852C106.887 78.6523 106.781 78.5262 106.672 78.4044L107.182 78.9142V65.1866C107.298 65.1767 107.424 65.17 107.561 65.17C107.679 65.17 107.795 65.1778 107.911 65.1895V84.3302C107.911 85.4648 108.047 86.483 108.468 87.2042L108.483 87.2296C108.962 87.9948 109.711 88.3719 110.572 88.4151C110.591 88.4778 110.611 88.5804 110.611 88.7403C110.611 88.8415 110.589 88.9215 110.544 88.9991C110.54 88.9992 110.536 89.0001 110.531 89.0001C109.716 89 109.113 88.8326 108.667 88.5606C108.229 88.2935 107.872 87.8837 107.612 87.2706L106.951 85.7071L105.904 87.0431C105.414 87.6686 104.829 88.1518 104.144 88.504C103.476 88.8286 102.721 89.0001 101.861 89.0001C100.855 89.0001 100.001 88.7856 99.2704 88.3829C98.5388 87.9484 97.9369 87.3569 97.4609 86.5919L96.6269 85.252L95.7714 86.5772C94.7237 88.1995 93.4424 88.9465 91.8857 88.9952C91.8682 88.9356 91.8515 88.845 91.8515 88.7101C91.8515 88.571 91.8649 88.4795 91.8788 88.4249C91.8931 88.4237 91.9104 88.42 91.9316 88.42C92.9668 88.42 93.87 87.9097 94.6298 87.1261L94.6288 87.1251C95.4051 86.3251 96.0192 85.2901 96.4941 84.0597L96.5751 83.8517L96.5585 83.629C96.5402 83.3728 96.5312 83.1165 96.5312 82.8604C96.5312 81.4745 96.8045 80.2829 97.3232 79.2628C97.8503 78.2263 98.5467 77.4333 99.4091 76.8565C100.276 76.2899 101.263 76.0001 102.401 76.0001C102.964 76.0001 103.525 76.112 104.091 76.3448L104.102 76.3497L104.114 76.3536C104.679 76.5694 105.125 76.8578 105.475 77.2071L106.258 77.9903C105.92 77.6888 105.545 77.4286 105.132 77.213H105.133C104.376 76.7981 103.571 76.5802 102.731 76.5802C101.682 76.5802 100.719 76.8643 99.8798 77.4493C99.0657 78.0167 98.4387 78.7851 97.9921 79.7218C97.535 80.6602 97.3212 81.7152 97.3212 82.8604C97.3213 84.4226 97.6736 85.785 98.4931 86.8351L98.5019 86.8458L98.5097 86.8565C99.38 87.9115 100.577 88.42 101.981 88.42C103.497 88.42 104.791 87.8894 105.761 86.7921L105.76 86.7911C106.733 85.7123 107.182 84.33 107.182 82.7403V79.0499Z" stroke="black" stroke-width="2"/>
<path d="M88.2906 76.1538C88.433 76.1716 88.5811 76.2042 88.736 76.2534C88.8781 76.2986 88.9932 76.3579 89.0895 76.4282V84.3296C89.0895 85.4643 89.2254 86.4824 89.6461 87.2036L89.653 87.2173L89.6617 87.23C90.1399 87.9949 90.8891 88.3722 91.7496 88.4155C91.7685 88.4782 91.7897 88.5801 91.7897 88.7397C91.7897 88.841 91.7662 88.9209 91.7213 88.9985C91.7176 88.9986 91.7137 89.0005 91.7096 89.0005C90.4742 89.0005 89.7089 88.631 89.2223 88.0337C88.7037 87.3971 88.36 86.3296 88.36 84.6597V77.2407L86.8785 78.0532C86.3449 78.3459 85.7172 78.5875 84.9869 78.77L84.9811 78.771C84.2895 78.9483 83.5436 79.0395 82.7399 79.0396C81.8448 79.0396 81.1143 78.9209 80.5289 78.7095L80.5055 78.7017L80.4254 78.6694C80.4058 78.6602 80.3925 78.6519 80.3834 78.646C80.3821 78.636 80.3795 78.6211 80.3795 78.6001C80.3795 78.4274 80.4239 78.344 80.4733 78.2856L80.4781 78.2798H80.5748L80.5905 78.2837C80.9485 78.3679 81.307 78.4411 81.6656 78.5044L81.694 78.5103L81.7223 78.5132C82.1029 78.558 82.4923 78.5796 82.8893 78.5796C84.0658 78.5796 85.1891 78.3135 86.2467 77.7847L86.2545 77.7808C87.095 77.3516 87.7944 76.8163 88.2906 76.1538ZM88.8893 68.02C89.2578 68.02 89.4821 68.1276 89.652 68.2974C89.8218 68.4672 89.9293 68.6915 89.9293 69.0601C89.9293 69.3822 89.8297 69.6156 89.6227 69.8228C89.446 69.9994 89.2273 70.1001 88.8893 70.1001C88.5976 70.1 88.3714 70.007 88.1569 69.7925C87.9423 69.5779 87.8493 69.3518 87.8492 69.0601C87.8492 68.6962 87.9536 68.4723 88.1198 68.3032C88.321 68.1169 88.5579 68.0201 88.8893 68.02Z" stroke="black" stroke-width="2"/>
<path d="M81.0458 79.2324L80.4042 78.9863C79.7719 78.7442 79.2852 78.4536 78.9179 78.1309C78.9875 77.7942 79.0984 77.4898 79.247 77.2139L79.2499 77.207L79.2538 77.2002C79.4794 76.7653 79.7297 76.4727 79.9863 76.2803L79.9921 76.2754C80.3042 76.0376 80.4958 76.0001 80.5859 76C80.6397 76 80.7008 76.0101 80.7997 76.1016C80.9192 76.212 81.0816 76.4352 81.2499 76.8477L81.2597 76.8711C81.6059 77.6625 81.8066 78.7432 81.8066 80.1602C81.8066 81.7877 81.528 83.24 80.9872 84.5312L80.8749 84.7871L80.873 84.793C80.2744 86.1351 79.4662 87.1608 78.4609 87.9062C77.4752 88.637 76.374 89 75.1259 89C74.0549 89 73.2919 88.6408 72.7226 87.959C72.127 87.226 71.7763 86.1818 71.7763 84.7197V80.0098C71.7763 79.1021 71.6547 78.2147 71.2109 77.585H71.2119C71.2071 77.578 71.202 77.5713 71.1972 77.5645H71.1962C70.7949 76.9889 70.1987 76.5801 69.4257 76.5801C68.6508 76.5802 68.0183 76.9516 67.5615 77.5303C67.1331 78.0729 66.8301 78.8424 66.5986 79.7266L66.5976 79.7314L65.4872 84.0508C64.9906 85.9396 64.3354 87.1928 63.5966 87.9355C62.9227 88.5947 62.0385 88.9657 60.8603 88.9971C60.8426 88.9375 60.8261 88.8462 60.8261 88.71C60.8261 88.5708 60.8395 88.4794 60.8535 88.4248C60.8677 88.4236 60.885 88.4199 60.9062 88.4199C61.9331 88.4199 62.768 87.8882 63.4013 87.0791C64.055 86.2494 64.5458 84.9904 64.9355 83.4316L65.832 79.9404C66.2249 78.481 66.7678 77.4967 67.3945 76.8857C67.9963 76.299 68.7308 76 69.666 76C70.421 76 71.0539 76.2827 71.6161 76.9209L71.624 76.9307L71.6328 76.9395C72.1787 77.5285 72.5058 78.3815 72.5058 79.6201V84.1504C72.5058 85.3052 72.6702 86.3355 73.124 87.1084C73.6263 87.9639 74.4368 88.4198 75.4257 88.4199C76.5443 88.4199 77.5413 87.9598 78.3925 87.1572C79.2148 86.3818 79.8478 85.3939 80.3115 84.2266L80.3124 84.2275C80.8034 83.0224 81.0458 81.7435 81.0458 80.4004V79.2324Z" stroke="black" stroke-width="2"/>
<path d="M57.4052 76.2104C57.5227 76.2105 57.6391 76.2172 57.7548 76.229V84.0601C57.7548 85.2011 57.9238 86.2173 58.3525 87.021L58.372 87.0562C58.8936 87.9458 59.7495 88.3712 60.7441 88.4146C60.7692 88.5148 60.7851 88.622 60.7851 88.7397C60.7851 88.841 60.7616 88.9209 60.7167 88.9985C60.713 88.9986 60.7091 89.0005 60.705 89.0005C59.8233 89.0005 59.1857 88.7938 58.7197 88.4556C58.2548 88.1181 57.869 87.5824 57.6083 86.7583L56.9443 84.6606L55.8007 86.5405C55.5546 86.9448 55.302 87.2688 55.0478 87.5229C54.5974 87.9733 54.0702 88.3342 53.4589 88.606L53.4492 88.6108C52.9403 88.8435 52.3851 88.9723 51.7744 88.9946C51.7367 88.9148 51.7148 88.8245 51.7148 88.7104C51.7148 88.5829 51.7405 88.493 51.7812 88.4204C51.7855 88.4203 51.7901 88.4204 51.7949 88.4204C52.4236 88.4204 53.0374 88.2258 53.621 87.9097C54.2492 87.5694 54.8 87.0662 55.2841 86.4438L55.2929 86.4331L55.3007 86.4224C55.8794 85.6353 56.2893 84.7411 56.539 83.7524L56.54 83.7534C56.7973 82.8099 56.9579 81.8534 57.0224 80.8862L57.0244 80.853V76.231C57.1459 76.2185 57.2729 76.2104 57.4052 76.2104ZM57.4345 68.02C57.803 68.02 58.0274 68.1276 58.1972 68.2974C58.3671 68.4672 58.4745 68.6915 58.4745 69.0601C58.4745 69.3822 58.375 69.6156 58.1679 69.8228C57.9912 69.9994 57.7725 70.1001 57.4345 70.1001C57.1429 70.1 56.9166 70.007 56.7021 69.7925C56.4876 69.5779 56.3945 69.3518 56.3945 69.0601C56.3945 68.6962 56.4989 68.4723 56.665 68.3032C56.8662 68.1169 57.1031 68.0201 57.4345 68.02Z" stroke="black" stroke-width="2"/>
<path d="M48.2363 79.0499L48.04 78.7852C47.9415 78.6523 47.8356 78.5262 47.7265 78.4044L48.2363 78.9142V65.1866C48.3524 65.1767 48.4787 65.17 48.6161 65.17C48.7337 65.17 48.8501 65.1778 48.9658 65.1895V84.3302C48.9658 85.4648 49.1017 86.483 49.5224 87.2042L49.538 87.2296C50.0163 87.9948 50.7661 88.3719 51.6269 88.4151C51.6458 88.4778 51.666 88.5804 51.666 88.7403C51.6659 88.8415 51.6435 88.9215 51.5986 88.9991C51.5947 88.9992 51.5902 89.0001 51.5859 89.0001C50.7711 89 50.168 88.8326 49.7216 88.5606C49.2834 88.2935 48.9263 87.8837 48.6669 87.2706L48.0058 85.7071L46.9589 87.0431C46.4686 87.6686 45.8835 88.1518 45.1992 88.504C44.5304 88.8286 43.7754 89.0001 42.916 89.0001C41.9102 89.0001 41.0556 88.7856 40.3251 88.3829C39.5935 87.9484 38.9916 87.3569 38.5156 86.5919L37.6816 85.252L36.8261 86.5772C35.7784 88.1995 34.4971 88.9465 32.9404 88.9952C32.9228 88.9356 32.9062 88.845 32.9062 88.7101C32.9062 88.571 32.9196 88.4795 32.9335 88.4249C32.9478 88.4237 32.9651 88.42 32.9863 88.42C34.0215 88.42 34.9247 87.9097 35.6845 87.1261L35.6835 87.1251C36.4598 86.3251 37.0739 85.2901 37.5488 84.0597L37.6298 83.8517L37.6132 83.629C37.5949 83.3728 37.5859 83.1165 37.5859 82.8604C37.5859 81.4745 37.8592 80.2829 38.3779 79.2628C38.905 78.2263 39.6014 77.4333 40.4638 76.8565C41.3306 76.2899 42.318 76.0001 43.456 76.0001C44.0188 76.0001 44.58 76.112 45.1454 76.3448L45.1572 76.3497L45.1689 76.3536C45.7333 76.5694 46.1799 76.8578 46.5292 77.2071L47.3124 77.9903C46.9752 77.6888 46.6 77.4286 46.1865 77.213H46.1874C45.4309 76.7981 44.6261 76.5802 43.7861 76.5802C42.7366 76.5802 41.774 76.8643 40.9345 77.4493C40.1204 78.0167 39.4934 78.7851 39.0468 79.7218C38.5896 80.6602 38.3759 81.7152 38.3759 82.8604C38.376 84.4226 38.7283 85.785 39.5478 86.8351L39.5566 86.8458L39.5644 86.8565C40.4347 87.9115 41.6312 88.42 43.0361 88.42C44.5513 88.42 45.8457 87.8894 46.8154 86.7921L46.8144 86.7911C47.7881 85.7123 48.2362 84.33 48.2363 82.7403V79.0499Z" stroke="black" stroke-width="2"/>
<path d="M26.2753 76C27.5965 76 28.4885 76.4193 29.1035 77.166L29.1113 77.1748C29.7701 77.9564 30.166 79.1273 30.166 80.8203V84.3301C30.166 85.4648 30.3009 86.4829 30.7216 87.2041L30.7294 87.2168L30.7372 87.2305C31.2156 87.9958 31.966 88.373 32.8271 88.416C32.8459 88.4788 32.8652 88.5812 32.8652 88.7402C32.8651 88.8415 32.8427 88.9214 32.7978 88.999C32.7939 88.9991 32.7894 89 32.7851 89C31.5499 88.9999 30.7854 88.6305 30.2988 88.0332C29.7802 87.3966 29.4355 86.33 29.4355 84.6602V80.8203C29.4355 79.6363 29.2072 78.5634 28.5839 77.7715C27.9248 76.934 26.9621 76.5801 25.8857 76.5801C24.7046 76.5801 23.6738 77.063 22.8281 77.9336L22.8232 77.9385L22.8183 77.9443C22.0229 78.7879 21.4393 79.9089 21.0292 81.2471L21.0253 81.2607C20.6331 82.6119 20.4453 84.1502 20.4453 85.8604V88.7656C20.3212 88.7802 20.205 88.79 20.0956 88.79C19.9752 88.79 19.8589 88.7813 19.746 88.7705V80.0098C19.746 79.169 19.6417 78.396 19.3486 77.7803C19.1726 77.4108 18.9026 77.0918 18.5292 76.874C18.1627 76.6602 17.7588 76.5801 17.3652 76.5801C16.5903 76.5802 15.9578 76.9516 15.5009 77.5303C15.0726 78.0729 14.7696 78.8424 14.538 79.7266L14.537 79.7314L13.4267 84.0508C12.9301 85.9396 12.2748 87.1928 11.5361 87.9355C10.8622 88.5947 9.97797 88.9657 8.79974 88.9971C8.78201 88.9375 8.76556 88.8462 8.76556 88.71C8.76557 88.5708 8.77898 88.4794 8.79291 88.4248C8.80714 88.4236 8.8245 88.4199 8.84564 88.4199C9.87251 88.4199 10.7074 87.8882 11.3408 87.0791C11.9945 86.2494 12.4852 84.9904 12.8749 83.4316L13.7714 79.9404C14.1643 78.481 14.7073 77.4967 15.3339 76.8857C15.9358 76.299 16.6703 76 17.6054 76C18.2886 76 18.8083 76.1985 19.2285 76.5645L19.2363 76.5703L19.2431 76.5762C19.6824 76.9447 20.0136 77.4653 20.2089 78.1973L20.8203 80.4902L22.0351 78.4521C22.5138 77.6485 23.1127 77.057 23.83 76.6494L23.8369 76.6455L23.8447 76.6406C24.5616 76.2171 25.364 76 26.2753 76Z" stroke="black" stroke-width="2"/>
<path d="M5.66992 76.2104C5.78741 76.2104 5.90386 76.2173 6.01953 76.229V84.3296C6.01953 85.4642 6.15556 86.4824 6.57617 87.2036L6.58398 87.2173L6.5918 87.23C7.07003 87.9952 7.81992 88.3723 8.68066 88.4155C8.69956 88.4782 8.71971 88.5802 8.71973 88.7397C8.71973 88.8409 8.69711 88.921 8.65234 88.9985C8.64844 88.9986 8.64399 89.0005 8.63965 89.0005C7.67861 89.0004 7.00842 88.7722 6.53809 88.4077C6.06954 88.0444 5.69246 87.4626 5.47168 86.5542L4.92773 84.3159L3.66406 86.2417C3.01581 87.2295 2.35506 87.9855 1.69434 88.5396C1.56554 88.4618 1.44866 88.3716 1.33984 88.272C1.27238 88.1978 1.21521 88.1193 1.16504 88.0366C1.42171 87.7776 1.69948 87.4887 1.99512 87.1685C2.52231 86.5973 3.02724 85.9283 3.5127 85.1685L3.51953 85.1577C4.02317 84.3475 4.43358 83.4492 4.75488 82.4683C5.11717 81.4265 5.29001 80.2833 5.29004 79.0503V76.231C5.41139 76.2185 5.53778 76.2105 5.66992 76.2104ZM5.7002 68.02C6.06866 68.0201 6.29308 68.1275 6.46289 68.2974C6.63267 68.4672 6.74023 68.6916 6.74023 69.0601C6.74022 69.3823 6.63982 69.6155 6.43262 69.8228C6.256 69.9993 6.03805 70.1001 5.7002 70.1001C5.40842 70.1001 5.1814 70.0071 4.9668 69.7925C4.75247 69.578 4.66017 69.3516 4.66016 69.0601C4.66016 68.6964 4.76472 68.4732 4.93066 68.3042C5.13201 68.1177 5.36851 68.02 5.7002 68.02Z" stroke="black" stroke-width="2"/>
<path d="M513.077 14.5C513.77 14.5001 514.351 14.6473 514.848 14.918L514.863 14.9268L514.88 14.9346C515.401 15.1949 515.787 15.5499 516.065 16.003L516.074 16.0186L516.085 16.0352C516.369 16.4616 516.517 16.9462 516.517 17.5196C516.517 18.7232 516.032 19.6685 514.98 20.4297C513.901 21.1893 512.389 21.6201 510.347 21.6201C510.046 21.6201 509.757 21.602 509.481 21.5674L508.231 21.4112L508.362 22.6651C508.541 24.3651 509.148 25.7994 510.248 26.875L510.256 26.8828C511.369 27.9459 512.789 28.4502 514.427 28.4502C515.024 28.4502 515.6 28.3807 516.15 28.2373L516.169 28.2325L516.188 28.2266C516.491 28.1344 516.79 28.0116 517.086 27.8633C517.117 27.9134 517.15 27.9653 517.181 28.0215L517.186 28.0313L517.192 28.041C517.236 28.1186 517.269 28.2031 517.297 28.294C517.018 28.4324 516.686 28.564 516.295 28.6836L516.278 28.6885L516.263 28.6944C515.683 28.8933 515.014 29 514.247 29H514.217L513.86 28.9932C512.104 28.9233 510.75 28.3308 509.714 27.2637C508.595 26.1105 507.899 24.4702 507.713 22.2373L507.649 21.4541L506.872 21.3321L506.531 21.2705C505.732 21.108 504.878 20.8061 503.967 20.3516C502.926 19.8125 502.027 19.1875 501.263 18.4805C501.172 18.3863 501.177 18.3444 501.177 18.3301C501.177 18.2702 501.192 18.1756 501.322 18.0254L501.335 18.0098L501.348 17.9951C501.362 17.9774 501.376 17.9638 501.387 17.9522C501.462 17.9946 501.573 18.0677 501.719 18.1914C502.387 18.7693 503.164 19.2811 504.041 19.7305L504.05 19.7344C504.905 20.1617 505.731 20.4738 506.525 20.6553L507.591 20.8985L507.737 19.8145C507.88 18.7627 508.207 17.8513 508.703 17.0635L508.708 17.0547C509.209 16.2439 509.836 15.6213 510.591 15.168C511.328 14.7258 512.149 14.5 513.077 14.5ZM512.927 14.9297C511.652 14.9297 510.57 15.4661 509.734 16.4541L509.732 16.4561C508.927 17.4118 508.495 18.6432 508.361 20.0664L508.274 21.0049L509.205 21.1485C509.511 21.1954 509.811 21.2197 510.107 21.2198C511.668 21.2198 513.016 20.9906 514.072 20.4502L514.08 20.4463L514.089 20.4414C515.178 19.8589 515.907 18.9464 515.907 17.7002C515.907 16.93 515.63 16.2368 515.053 15.7129H515.054C514.47 15.1619 513.725 14.9297 512.927 14.9297Z" stroke="black" stroke-width="2"/>
<path d="M501.573 19.2325L500.932 18.9864C500.299 18.7442 499.813 18.4537 499.445 18.1309C499.515 17.7942 499.626 17.4898 499.774 17.2139L499.777 17.2071L499.781 17.2002C500.007 16.7653 500.257 16.4727 500.514 16.2803L500.519 16.2754C500.832 16.0376 501.023 16.0001 501.113 16C501.167 16 501.228 16.0101 501.327 16.1016C501.447 16.212 501.609 16.4352 501.777 16.8477L501.787 16.8711C502.133 17.6625 502.334 18.7432 502.334 20.1602C502.334 21.7877 502.055 23.2401 501.515 24.5313L501.402 24.7871L501.4 24.793C500.802 26.1352 499.994 27.1609 498.988 27.9063C498.003 28.637 496.901 29 495.653 29C494.582 29 493.819 28.6409 493.25 27.959C492.654 27.226 492.304 26.1818 492.304 24.7198V20.0098C492.304 19.1021 492.182 18.2147 491.738 17.585H491.739C491.734 17.5781 491.729 17.5714 491.725 17.5645H491.724C491.322 16.9889 490.726 16.5801 489.953 16.5801C489.178 16.5802 488.546 16.9517 488.089 17.5303C487.66 18.0729 487.357 18.8424 487.126 19.7266L487.125 19.7315L486.015 24.0508C485.518 25.9397 484.863 27.1928 484.124 27.9356C483.45 28.5947 482.566 28.9657 481.388 28.9971C481.37 28.9376 481.353 28.8463 481.353 28.71C481.353 28.5709 481.367 28.4794 481.381 28.4248C481.395 28.4237 481.412 28.42 481.434 28.42C482.46 28.4199 483.295 27.8882 483.929 27.0791C484.582 26.2494 485.073 24.9905 485.463 23.4317L486.359 19.9405C486.752 18.481 487.295 17.4967 487.922 16.8858C488.524 16.2991 489.258 16.0001 490.193 16C490.948 16 491.581 16.2827 492.143 16.9209L492.151 16.9307L492.16 16.9395C492.706 17.5286 493.033 18.3815 493.033 19.6201V24.1504C493.033 25.3053 493.198 26.3355 493.651 27.1084C494.154 27.9639 494.964 28.4198 495.953 28.42C497.072 28.42 498.069 27.9598 498.92 27.1573C499.742 26.3819 500.375 25.3939 500.839 24.2266L500.84 24.2276C501.331 23.0224 501.573 21.7436 501.573 20.4004V19.2325Z" stroke="black" stroke-width="2"/>
<path d="M477.933 16.2104C478.05 16.2105 478.166 16.2172 478.282 16.229V24.0601C478.282 25.2011 478.451 26.2173 478.88 27.021L478.899 27.0562C479.421 27.9458 480.277 28.3712 481.271 28.4146C481.297 28.5148 481.312 28.622 481.312 28.7397C481.312 28.841 481.289 28.921 481.244 28.9985C481.24 28.9986 481.236 29.0005 481.232 29.0005C480.351 29.0005 479.713 28.7938 479.247 28.4556C478.782 28.1181 478.396 27.5825 478.136 26.7583L477.472 24.6606L476.328 26.5405C476.082 26.9448 475.829 27.2688 475.575 27.5229C475.125 27.9733 474.598 28.3342 473.986 28.606L473.977 28.6108C473.468 28.8435 472.912 28.9723 472.302 28.9946C472.264 28.9149 472.242 28.8245 472.242 28.7104C472.242 28.5829 472.268 28.493 472.309 28.4204C472.313 28.4203 472.317 28.4204 472.322 28.4204C472.951 28.4204 473.565 28.2258 474.148 27.9097C474.777 27.5694 475.327 27.0662 475.811 26.4438L475.82 26.4331L475.828 26.4224C476.407 25.6353 476.817 24.7411 477.066 23.7524L477.067 23.7534C477.325 22.8099 477.485 21.8535 477.55 20.8862L477.552 20.853V16.231C477.673 16.2185 477.8 16.2104 477.933 16.2104ZM477.962 8.02002C478.33 8.02002 478.555 8.12758 478.725 8.29736C478.894 8.46721 479.002 8.69149 479.002 9.06006C479.002 9.38222 478.902 9.61559 478.695 9.82275C478.519 9.99941 478.3 10.1001 477.962 10.1001C477.67 10.1 477.444 10.007 477.229 9.79248C477.015 9.57792 476.922 9.35175 476.922 9.06006C476.922 8.69619 477.026 8.4723 477.192 8.30322C477.394 8.11687 477.63 8.02007 477.962 8.02002Z" stroke="black" stroke-width="2"/>
<path d="M467.421 8.08002C467.55 8.08002 467.677 8.08889 467.801 8.1015V13.5995H472.502C472.506 13.6614 472.511 13.7279 472.511 13.7997C472.511 13.8714 472.506 13.9381 472.502 13.9999H467.801V21.2099C467.801 23.2857 468.109 25.0219 468.827 26.3154L468.832 26.3251L468.838 26.3349C469.589 27.6197 470.715 28.3648 472.155 28.415C472.169 28.491 472.182 28.5972 472.182 28.7402C472.182 28.8434 472.167 28.9036 472.157 28.9335C472.148 28.96 472.142 28.9672 472.142 28.9677L472.111 28.999C472.108 28.999 472.105 28.9999 472.102 28.9999C471.005 28.9999 470.136 28.6928 469.435 28.1171C468.732 27.5221 468.177 26.6689 467.804 25.497L467.122 23.3515L465.987 25.2958C465.22 26.6111 464.31 27.5291 463.274 28.1064C462.244 28.6809 461.236 28.9635 460.243 28.9931C460.222 28.9377 460.201 28.8494 460.201 28.7099C460.201 28.556 460.226 28.4691 460.247 28.4218C460.256 28.4212 460.268 28.4199 460.281 28.4199C460.975 28.4198 461.693 28.2131 462.415 27.8749C463.237 27.499 463.985 26.8865 464.669 26.0927C465.399 25.2444 465.964 24.1455 466.392 22.8417L466.393 22.8369C466.835 21.4652 467.041 19.8033 467.041 17.8798V13.9999H464.618C464.615 13.9377 464.611 13.8709 464.611 13.7997C464.611 13.7285 464.615 13.6619 464.618 13.5995H467.041V8.09662C467.157 8.08668 467.283 8.08002 467.421 8.08002Z" stroke="black" stroke-width="2"/>
<path d="M456.732 19.0498L456.536 18.7852C456.438 18.6523 456.332 18.5262 456.223 18.4043L456.732 18.9141V16.0811C456.854 16.0687 456.98 16.0596 457.112 16.0596C457.233 16.0596 457.349 16.0673 457.462 16.0782V24.3301C457.462 25.4648 457.598 26.4829 458.018 27.2041L458.026 27.2168L458.034 27.2305C458.512 27.9955 459.262 28.3729 460.123 28.416C460.142 28.4788 460.162 28.581 460.162 28.7403C460.162 28.8414 460.139 28.9215 460.095 28.9991C460.091 28.9991 460.086 29 460.082 29C459.267 29 458.664 28.8334 458.218 28.5616C457.779 28.2945 457.422 27.8837 457.163 27.2705L456.502 25.708L455.455 27.043C454.965 27.6685 454.38 28.1517 453.695 28.5039C453.026 28.8286 452.272 29 451.412 29C450.37 29 449.492 28.7677 448.745 28.3311C448.002 27.885 447.402 27.2659 446.943 26.4502L446.243 25.2041L445.312 26.2891C444.569 27.1561 443.679 27.8259 442.634 28.3057C441.624 28.7498 440.513 28.9832 439.288 28.9971C439.267 28.9496 439.242 28.863 439.242 28.71C439.242 28.5914 439.257 28.5206 439.268 28.4844C439.274 28.4662 439.28 28.457 439.282 28.4532V28.4522C439.289 28.451 439.302 28.4502 439.322 28.4502C440.711 28.4502 441.998 28.0762 443.161 27.3321L443.165 27.3291C444.324 26.5789 445.271 25.5723 446.004 24.3282L446.179 24.0303L446.134 23.6875C446.1 23.4365 446.082 23.1612 446.082 22.8604C446.082 21.4745 446.355 20.2837 446.874 19.2637C447.401 18.2274 448.097 17.4342 448.959 16.8575C449.826 16.2906 450.814 16 451.952 16C452.515 16 453.076 16.1119 453.642 16.3448L453.665 16.3545C454.229 16.5703 454.676 16.8577 455.025 17.2071L455.809 17.9903C455.465 17.6835 455.082 17.4191 454.66 17.2012C453.91 16.7944 453.114 16.5801 452.282 16.5801C451.233 16.5801 450.27 16.8643 449.431 17.4492C448.617 18.0166 447.99 18.7851 447.543 19.7217C447.086 20.6601 446.872 21.7151 446.872 22.8604C446.872 24.4226 447.224 25.7849 448.044 26.835L448.052 26.8457L448.06 26.8565C448.931 27.9115 450.127 28.42 451.532 28.42C453.047 28.4199 454.342 27.8893 455.311 26.792L455.31 26.791C456.284 25.7122 456.732 24.3299 456.732 22.7403V19.0498Z" stroke="black" stroke-width="2"/>
<path d="M437.15 16C437.864 16 438.459 16.1679 438.965 16.4805L438.975 16.4864L438.983 16.4922C439.498 16.7949 439.9 17.2152 440.196 17.7764C440.489 18.3317 440.65 18.9973 440.65 19.7998C440.65 20.8666 440.339 21.834 439.698 22.7276L439.69 22.7373C439.048 23.6569 437.899 24.7276 436.159 25.9395L435 26.7471L436.147 27.5723C436.977 28.1683 438.014 28.4261 439.171 28.4453C439.19 28.508 439.211 28.6099 439.211 28.7696C439.211 28.8818 439.197 28.9527 439.185 28.9922C439.185 28.9942 439.183 28.9962 439.183 28.9981C439.176 28.9984 439.169 29 439.161 29C438.314 29 437.535 28.8598 436.816 28.586C436.09 28.3094 435.515 27.9408 435.067 27.4932L434.505 26.9307L433.831 27.3516C432.09 28.4399 430.485 28.9602 429.005 28.9961C428.987 28.9366 428.971 28.8456 428.971 28.71C428.971 28.5709 428.984 28.4794 428.998 28.4248C429.012 28.4237 429.03 28.42 429.051 28.42C429.735 28.4199 430.423 28.3132 431.108 28.1075L431.122 28.1035L431.137 28.0987C431.821 27.8704 432.585 27.5069 433.419 27.0274L434.285 26.5293L433.788 25.6621C433.109 24.4782 432.751 23.0561 432.751 21.3604C432.751 20.2448 432.957 19.3094 433.339 18.5293L433.343 18.5225C433.731 17.712 434.255 17.1066 434.911 16.6748L434.918 16.6709L434.925 16.666C435.57 16.2251 436.302 16.0001 437.15 16ZM437.06 16.4903C435.924 16.4903 434.991 17.024 434.308 17.9434L434.303 17.9512L434.297 17.959C433.655 18.8583 433.36 19.9315 433.36 21.1201C433.36 22.8049 433.657 24.2634 434.342 25.4121L434.89 26.3321L435.769 25.7227C437.116 24.7905 438.171 23.8379 438.882 22.8565L438.883 22.8575C439.604 21.8883 440.041 20.8624 440.041 19.7998C440.041 18.9251 439.821 18.1037 439.258 17.4678C438.7 16.7936 437.922 16.4903 437.06 16.4903Z" stroke="black" stroke-width="2"/>
<path d="M417.792 14.07C418.02 14.5857 418.222 15.1992 418.391 15.9186L418.588 16.7555L419.444 16.6872C420.011 16.6418 420.669 16.5202 421.408 16.3366C422.033 16.1998 422.502 16.119 422.829 16.0846L422.851 16.0827L422.873 16.0788C423.243 16.0232 423.531 15.9997 423.745 15.9997C424.53 15.9998 425.077 16.2773 425.497 16.8327V16.8336L425.504 16.8424C425.946 17.4131 426.224 18.2619 426.224 19.4997V24.3297C426.224 25.4645 426.36 26.4825 426.781 27.2038L426.789 27.2174L426.797 27.2301C427.275 27.995 428.024 28.3723 428.884 28.4157C428.903 28.4784 428.924 28.5803 428.924 28.7399C428.924 28.841 428.902 28.9212 428.857 28.9987C428.853 28.9988 428.849 28.9997 428.844 28.9997C427.609 28.9997 426.844 28.6311 426.357 28.0338C425.838 27.3972 425.495 26.3298 425.495 24.6598V20.0104C425.495 19.0973 425.404 18.2371 425.069 17.6344C424.644 16.8702 423.886 16.5797 423.114 16.5797C422.862 16.5798 422.601 16.6077 422.336 16.6559C422.098 16.6991 421.694 16.7822 421.134 16.902C420.486 17.0394 419.971 17.1346 419.583 17.1901L418.665 17.321L418.726 18.2467C418.745 18.5245 418.755 18.8021 418.755 19.0797C418.755 20.416 418.55 21.701 418.144 22.9381L418.141 22.9469C417.756 24.157 417.204 25.1795 416.496 26.0299L416.491 26.0358C414.906 27.9686 412.669 28.9794 409.638 28.9977C409.616 28.9515 409.594 28.8734 409.594 28.7399C409.594 28.6008 409.608 28.5093 409.622 28.4547C409.636 28.4536 409.653 28.4499 409.674 28.4499C412.377 28.4498 414.573 27.4371 416.139 25.3874L416.142 25.3835C416.777 24.5442 417.257 23.5887 417.589 22.528C417.919 21.4702 418.085 20.3799 418.085 19.2604C418.085 18.8979 418.063 18.5353 418.022 18.1735C418 17.8009 417.953 17.4462 417.862 17.1422L417.797 16.9235L417.641 16.7545L417.525 16.6159C417.403 16.4608 417.268 16.2549 417.121 15.9879C416.931 15.6421 416.777 15.3016 416.658 14.9665C416.612 14.8023 416.579 14.6596 416.558 14.5368C416.69 14.4324 416.876 14.3251 417.139 14.2253C417.378 14.1347 417.594 14.0861 417.792 14.07Z" stroke="black" stroke-width="2"/>
<path d="M408.283 16C409.107 16.0001 409.825 16.1621 410.455 16.4688L410.469 16.4756L410.482 16.4815C410.948 16.6909 411.343 16.9692 411.676 17.3164C411.585 17.4488 411.469 17.57 411.322 17.6807C410.53 16.9497 409.529 16.5801 408.373 16.5801C406.92 16.5801 405.693 17.1493 404.779 18.2666L404.777 18.2686C403.89 19.3588 403.503 20.7774 403.503 22.4102C403.503 24.1344 404.009 25.6195 405.1 26.7608V26.7617L405.108 26.7696C406.21 27.8956 407.707 28.4166 409.467 28.4473C409.488 28.4791 409.533 28.5645 409.533 28.7696C409.533 28.8731 409.518 28.934 409.509 28.9639C409.5 28.9882 409.494 28.9957 409.493 28.9971H409.492C409.482 28.998 409.469 29 409.453 29C408.027 29 406.835 28.7176 405.844 28.1885C404.968 27.7198 404.274 27.1012 403.751 26.3282L403.537 25.9873C402.999 25.0428 402.713 23.911 402.713 22.5596C402.713 21.2071 402.968 20.0654 403.447 19.1075L403.45 19.1006C403.938 18.1077 404.593 17.3606 405.41 16.8272L405.414 16.8242C406.239 16.2798 407.185 16 408.283 16Z" stroke="black" stroke-width="2"/>
<path d="M385.648 19.0498L385.451 18.7852C385.353 18.6523 385.247 18.5261 385.138 18.4043L385.648 18.9141V16.0811C385.769 16.0687 385.896 16.0596 386.028 16.0596C386.148 16.0596 386.265 16.0673 386.378 16.0782V24.3301C386.378 25.4648 386.514 26.4829 386.934 27.2041L386.942 27.2168L386.95 27.2305C387.459 28.0452 388.277 28.4199 389.208 28.42C389.578 28.42 389.942 28.336 390.287 28.2032C390.406 28.1573 390.523 28.1024 390.639 28.044C390.659 28.0745 390.682 28.1056 390.702 28.1416L390.707 28.1514L390.713 28.1612C390.765 28.251 390.799 28.3352 390.825 28.4121C390.662 28.5374 390.472 28.6551 390.245 28.7549C389.88 28.9156 389.478 29 389.028 29H388.998C388.183 29 387.58 28.8334 387.134 28.5616C386.695 28.2945 386.338 27.8837 386.079 27.2705L385.418 25.7071L384.371 27.043C383.882 27.6673 383.298 28.1499 382.615 28.502C381.945 28.8279 381.189 29 380.328 29C379.235 29 378.315 28.7421 377.532 28.2539C376.856 27.8213 376.295 27.2348 375.854 26.4717L375.673 26.1328C375.232 25.2121 374.998 24.129 374.998 22.8604C374.998 21.4747 375.27 20.2837 375.789 19.2637C376.316 18.2273 377.013 17.4342 377.875 16.8575C378.742 16.2906 379.73 16 380.868 16C381.431 16 381.992 16.1119 382.557 16.3448L382.581 16.3545C383.145 16.5703 383.592 16.8578 383.941 17.2071L384.724 17.9903C384.381 17.6835 383.998 17.4191 383.576 17.2012C382.826 16.7943 382.03 16.5801 381.198 16.5801C380.149 16.5801 379.186 16.8643 378.346 17.4492C377.532 18.0166 376.905 18.7851 376.459 19.7217C376.002 20.6601 375.788 21.7151 375.788 22.8604C375.788 24.4226 376.14 25.7849 376.96 26.835L376.968 26.8457L376.976 26.8565C377.847 27.9115 379.043 28.42 380.448 28.42C381.963 28.4199 383.258 27.8893 384.227 26.792L384.226 26.791C385.2 25.7122 385.648 24.3299 385.648 22.7403V19.0498Z" stroke="black" stroke-width="2"/>
<path d="M356.415 8.08002C356.544 8.08002 356.671 8.08889 356.795 8.1015V13.5995H361.496C361.5 13.6614 361.505 13.7279 361.505 13.7997C361.505 13.8714 361.5 13.9381 361.496 13.9999H356.795V24.4199C356.795 24.9555 356.84 25.4829 356.93 26.0009L356.934 26.0224L356.938 26.0429C357.067 26.6341 357.307 27.173 357.679 27.6308L357.689 27.6425L357.699 27.6552C358.211 28.2455 358.935 28.4501 359.655 28.4501C360.378 28.4501 361.054 28.2595 361.65 27.8622L361.658 27.8564C361.831 27.7384 361.995 27.6182 362.152 27.4999C362.19 27.5468 362.228 27.5947 362.265 27.6454C362.322 27.7252 362.368 27.8021 362.408 27.874C362.322 27.9496 362.222 28.0339 362.107 28.1249C361.81 28.3421 361.431 28.5514 360.958 28.7441C360.556 28.9079 360.077 28.9999 359.505 28.9999C358.495 28.9999 357.851 28.7277 357.428 28.3076C356.949 27.8118 356.607 27.1428 356.437 26.2451L355.993 23.8857L354.632 25.8632C353.871 26.9677 353.002 27.7459 352.032 28.2392L352.025 28.2421C351.092 28.7252 350.166 28.9672 349.237 28.9941C349.216 28.9387 349.195 28.8501 349.195 28.7099C349.195 28.556 349.22 28.4691 349.241 28.4218C349.251 28.4212 349.262 28.4199 349.275 28.4199C349.97 28.4198 350.688 28.2131 351.409 27.8749C352.231 27.499 352.979 26.8865 353.663 26.0927C354.393 25.2444 354.958 24.1455 355.386 22.8417L355.387 22.8369C355.829 21.4652 356.035 19.8033 356.035 17.8798V13.9999H353.612C353.609 13.9377 353.605 13.8709 353.605 13.7997C353.605 13.7285 353.609 13.6619 353.612 13.5995H356.035V8.09662C356.151 8.08668 356.278 8.08002 356.415 8.08002Z" stroke="black" stroke-width="2"/>
<path d="M334.825 16.1533C334.967 16.1711 335.115 16.2038 335.269 16.2529C335.411 16.2982 335.526 16.3583 335.623 16.4287V22.3496C335.623 24.154 335.905 25.6784 336.643 26.7334L336.65 26.7431C337.445 27.8502 338.671 28.33 340.103 28.33C341.813 28.3299 343.217 27.683 344.145 26.3271C345.026 25.0393 345.393 23.2324 345.393 21.0595V16.2265C345.505 16.2161 345.622 16.2099 345.743 16.2099C345.872 16.2099 345.999 16.2188 346.123 16.2314V24.0595C346.123 25.2005 346.292 26.2168 346.72 27.0205L346.74 27.0556C347.262 27.9457 348.118 28.3719 349.113 28.415C349.138 28.5152 349.153 28.6226 349.153 28.7402C349.153 28.8415 349.13 28.9213 349.085 28.999C349.081 28.9991 349.077 29 349.073 29C348.259 29 347.654 28.823 347.201 28.5302C346.752 28.2401 346.376 27.7873 346.099 27.1045L345.399 25.375L344.347 26.916C343.883 27.5952 343.294 28.1087 342.57 28.4716C341.854 28.8109 340.972 28.9999 339.893 29C338.205 29 337.027 28.4499 336.21 27.4326C335.382 26.3776 334.893 24.7431 334.893 22.3799V17.2412L333.412 18.0537C332.878 18.3463 332.25 18.587 331.52 18.7695L331.514 18.7715C330.823 18.9488 330.077 19.04 329.273 19.04C328.378 19.04 327.648 18.9213 327.062 18.7099L327.05 18.705L327.039 18.7011C326.972 18.6789 326.935 18.6585 326.917 18.6465C326.915 18.6365 326.913 18.621 326.913 18.5996C326.913 18.4272 326.957 18.3444 327.007 18.2861L327.011 18.2802H327.11L327.124 18.2832C327.482 18.3674 327.84 18.4415 328.199 18.5049L328.227 18.5097L328.256 18.5136C328.636 18.5584 329.026 18.58 329.423 18.58C330.599 18.58 331.722 18.313 332.78 17.7841L332.788 17.7802C333.628 17.3509 334.329 16.8161 334.825 16.1533Z" stroke="black" stroke-width="2"/>
<path d="M320.165 1C321.118 1 321.911 1.43474 322.582 2.53223L322.586 2.53809C323.273 3.64439 323.665 5.21864 323.665 7.34961C323.665 9.02385 323.502 10.6784 323.175 12.3135L323.173 12.3232C322.863 13.9527 322.437 15.5107 321.896 16.998C321.352 18.4926 320.735 19.8527 320.044 21.0801C319.349 22.316 318.634 23.3613 317.903 24.2236L317.513 24.6826L317.737 25.2412C317.795 25.3871 317.866 25.5275 317.946 25.6631L317.945 25.6641C318.424 26.5065 319.016 27.1927 319.744 27.6611L319.779 27.6826C320.547 28.1324 321.441 28.3301 322.415 28.3301C323.513 28.3301 324.515 28.0206 325.378 27.3857C326.22 26.767 326.853 25.9265 327.293 24.9062L327.297 24.8994C327.738 23.8555 327.945 22.6889 327.945 21.4199C327.945 20.9522 327.912 20.4849 327.845 20.0186L327.78 19.5625L327.392 19.3154L326.953 19.0293C326.3 18.5878 325.84 18.2064 325.536 17.8906C325.609 17.7724 325.692 17.6528 325.79 17.5342C326.045 17.2312 326.309 17.0104 326.576 16.8555L326.61 16.8359C326.88 16.6651 327.056 16.6299 327.155 16.6299C327.198 16.6299 327.354 16.6369 327.619 16.9854L327.631 17.001C327.9 17.3412 328.152 17.8531 328.35 18.5889L328.354 18.6035L328.358 18.6172C328.565 19.3095 328.675 20.1009 328.675 21C328.675 22.6902 328.393 24.1159 327.862 25.3018L327.86 25.3076C327.349 26.4685 326.628 27.3429 325.7 27.9678C324.807 28.5634 323.726 28.8799 322.415 28.8799C320.048 28.8798 318.501 28.0177 317.55 26.3779L316.849 25.168L315.931 26.2236C315.554 26.6576 315.115 27.1166 314.612 27.5996C314.28 27.9191 313.908 28.2405 313.497 28.5664C313.305 28.3779 313.145 28.1593 313.019 27.9033C313.51 27.5257 314.012 27.0976 314.522 26.6172L314.527 26.6123L314.532 26.6074C315.259 25.9014 315.9 25.1988 316.451 24.499L316.735 24.1387L316.647 23.6895C316.384 22.3404 316.245 20.4628 316.245 18.0303V9.69043C316.245 8.0567 316.295 6.759 316.389 5.78711C316.503 4.81876 316.679 4.05578 316.9 3.47754L316.901 3.47559C317.226 2.61896 317.673 2.01686 318.215 1.61035C318.746 1.21191 319.381 1.00003 320.165 1ZM320.016 1.49023C319.357 1.49023 318.759 1.72017 318.276 2.1709C317.815 2.60039 317.506 3.18411 317.295 3.8291V3.83008C316.921 4.9771 316.766 6.85162 316.766 9.33008V17.4297C316.766 19.1454 316.816 20.5697 316.92 21.6924L317.182 24.5234L318.749 22.1514C319.571 20.908 320.311 19.4782 320.971 17.8691L320.972 17.8652C321.635 16.2271 322.153 14.5094 322.525 12.7129L322.524 12.7119C322.916 10.8898 323.115 9.09233 323.115 7.32031C323.115 5.66857 322.94 4.29473 322.507 3.29883C322.286 2.78981 321.976 2.33088 321.542 1.99805C321.095 1.65513 320.572 1.49032 320.016 1.49023Z" stroke="black" stroke-width="2"/>
<path d="M298.852 27.4964C298.923 27.6978 298.989 27.9198 299.048 28.1644L299.053 28.1849L299.059 28.2044C299.188 28.6569 299.26 29.2019 299.26 29.8499C299.26 30.9716 298.978 32.0319 298.402 33.0453H298.401L298.395 33.057C297.952 33.8597 297.323 34.5201 296.487 35.0404C296.425 34.9765 296.359 34.9035 296.289 34.8197C296.276 34.8045 296.266 34.7884 296.254 34.7738C296.78 34.3253 297.233 33.7978 297.612 33.1937L297.613 33.1947C298.216 32.2893 298.501 31.2405 298.501 30.0902C298.501 29.3363 298.329 28.5568 298.02 27.7591C298.105 27.7199 298.201 27.6819 298.308 27.6449C298.497 27.5795 298.678 27.5313 298.852 27.4964Z" stroke="black" stroke-width="2"/>
<path d="M280.448 14.07C280.676 14.5857 280.878 15.1992 281.048 15.9186L281.244 16.7555L282.1 16.6872C282.667 16.6418 283.325 16.5202 284.064 16.3366C284.689 16.1998 285.158 16.119 285.485 16.0846L285.507 16.0827L285.529 16.0788C285.899 16.0232 286.187 15.9997 286.401 15.9997C287.186 15.9998 287.733 16.2773 288.153 16.8327V16.8336L288.16 16.8424C288.602 17.4131 288.88 18.2619 288.881 19.4997V24.3297C288.881 25.4645 289.016 26.4825 289.437 27.2038L289.445 27.2174L289.453 27.2301C289.962 28.045 290.779 28.4196 291.711 28.4196C292.081 28.4196 292.444 28.3366 292.79 28.2038C292.909 28.1579 293.025 28.1021 293.142 28.0436C293.162 28.0742 293.185 28.106 293.205 28.1422L293.21 28.152L293.215 28.1608C293.268 28.2511 293.302 28.3356 293.329 28.4128C293.165 28.5382 292.975 28.6547 292.748 28.7545C292.382 28.9152 291.981 28.9996 291.531 28.9997H291.501C290.265 28.9997 289.5 28.6311 289.013 28.0338C288.495 27.3972 288.151 26.3298 288.151 24.6598V20.0104C288.151 19.0973 288.06 18.2371 287.725 17.6344C287.301 16.8702 286.542 16.5797 285.77 16.5797C285.518 16.5798 285.257 16.6077 284.992 16.6559C284.755 16.6991 284.35 16.7822 283.791 16.902C283.143 17.0394 282.627 17.1346 282.239 17.1901L281.321 17.321L281.382 18.2467C281.401 18.5245 281.411 18.8021 281.411 19.0797C281.411 20.416 281.207 21.701 280.8 22.9381L280.798 22.9469C280.412 24.157 279.861 25.1795 279.152 26.0299L279.147 26.0358C277.563 27.9686 275.325 28.9794 272.295 28.9977C272.272 28.9515 272.251 28.8734 272.251 28.7399C272.251 28.6008 272.264 28.5093 272.278 28.4547C272.292 28.4536 272.31 28.4499 272.331 28.4499C275.033 28.4498 277.229 27.4371 278.796 25.3874L278.798 25.3835C279.434 24.5442 279.913 23.5887 280.245 22.528C280.575 21.4702 280.741 20.3799 280.741 19.2604C280.741 18.8979 280.719 18.5353 280.678 18.1735C280.656 17.8009 280.609 17.4462 280.518 17.1422L280.453 16.9235L280.298 16.7545L280.181 16.6159C280.06 16.4608 279.924 16.2549 279.777 15.9879C279.587 15.6421 279.433 15.3016 279.314 14.9665C279.268 14.8023 279.236 14.6596 279.215 14.5368C279.346 14.4324 279.532 14.3251 279.796 14.2253C280.034 14.1347 280.251 14.0861 280.448 14.07Z" stroke="black" stroke-width="2"/>
<path d="M270.129 16C270.842 16 271.437 16.1679 271.943 16.4805L271.953 16.4864L271.962 16.4922C272.476 16.7949 272.879 17.2152 273.175 17.7764C273.468 18.3317 273.629 18.9973 273.629 19.7998C273.629 20.8666 273.317 21.834 272.677 22.7276L272.669 22.7373C272.027 23.6569 270.877 24.7276 269.138 25.9395L267.978 26.7471L269.126 27.5723C269.955 28.1683 270.992 28.4261 272.149 28.4453C272.168 28.508 272.189 28.6099 272.189 28.7696C272.189 28.8818 272.176 28.9527 272.164 28.9922C272.163 28.9942 272.162 28.9962 272.161 28.9981C272.155 28.9984 272.148 29 272.14 29C271.293 29 270.514 28.8598 269.795 28.586C269.069 28.3094 268.493 27.9408 268.046 27.4932L267.483 26.9307L266.81 27.3516C265.068 28.4399 263.464 28.9602 261.983 28.9961C261.966 28.9366 261.949 28.8456 261.949 28.71C261.949 28.5709 261.963 28.4794 261.977 28.4248C261.991 28.4237 262.008 28.42 262.029 28.42C262.714 28.4199 263.401 28.3132 264.087 28.1075L264.101 28.1035L264.115 28.0987C264.8 27.8704 265.563 27.5069 266.397 27.0274L267.264 26.5293L266.767 25.6621C266.088 24.4782 265.729 23.0561 265.729 21.3604C265.729 20.2448 265.936 19.3094 266.317 18.5293L266.321 18.5225C266.71 17.712 267.234 17.1066 267.89 16.6748L267.896 16.6709L267.903 16.666C268.549 16.2251 269.28 16.0001 270.129 16ZM270.039 16.4903C268.902 16.4903 267.969 17.024 267.286 17.9434L267.281 17.9512L267.275 17.959C266.633 18.8583 266.339 19.9315 266.339 21.1201C266.339 22.8049 266.636 24.2634 267.32 25.4121L267.868 26.3321L268.748 25.7227C270.094 24.7905 271.15 23.8379 271.86 22.8565L271.861 22.8575C272.583 21.8883 273.019 20.8624 273.019 19.7998C273.019 18.9251 272.8 18.1037 272.236 17.4678C271.678 16.7936 270.901 16.4903 270.039 16.4903Z" stroke="black" stroke-width="2"/>
<path d="M239.207 16C239.858 16 240.355 16.1838 240.757 16.5186L240.77 16.5293L240.785 16.541C241.217 16.8759 241.551 17.3588 241.76 18.0498L242.469 20.3936L242.935 19.503C242.788 19.8337 242.655 20.1846 242.541 20.5557L242.538 20.5674C242.205 21.7004 242.047 22.9897 242.047 24.42V28.7657C241.923 28.7802 241.807 28.7901 241.697 28.7901C241.574 28.7901 241.458 28.7824 241.348 28.7725V20.0098C241.348 19.138 241.229 18.3226 240.872 17.6934C240.467 16.9804 239.792 16.5801 238.967 16.5801C238.192 16.5802 237.559 16.9517 237.102 17.5303C236.674 18.0729 236.371 18.8424 236.14 19.7266L236.139 19.7315L235.028 24.0508C234.532 25.9397 233.876 27.1928 233.138 27.9356C232.464 28.5947 231.58 28.9657 230.401 28.9971C230.384 28.9375 230.367 28.8463 230.367 28.71C230.367 28.5709 230.381 28.4794 230.394 28.4248C230.409 28.4237 230.426 28.42 230.447 28.42C231.474 28.4199 232.309 27.8882 232.942 27.0791C233.596 26.2494 234.087 24.9905 234.477 23.4317L235.373 19.9405C235.766 18.481 236.309 17.4967 236.935 16.8858C237.537 16.2991 238.272 16.0001 239.207 16ZM255.797 16C256.989 16 257.772 16.3666 258.303 16.9951C258.86 17.6551 259.207 18.6644 259.207 20.1602V24.3301C259.207 25.4648 259.343 26.4829 259.764 27.2041L259.771 27.2168L259.779 27.2305C260.258 27.9955 261.007 28.3729 261.868 28.416C261.887 28.4788 261.907 28.5811 261.907 28.7403C261.907 28.8414 261.885 28.9215 261.84 28.9991C261.836 28.9991 261.832 29 261.827 29C260.592 29 259.826 28.6306 259.34 28.0332C258.821 27.3966 258.477 26.3299 258.477 24.6602V20.8203C258.477 19.6802 258.272 18.6511 257.734 17.8584C257.161 17.0132 256.305 16.5801 255.287 16.5801C253.737 16.5801 252.608 17.5168 251.876 18.9571L251.873 18.9629C251.174 20.3604 250.867 22.2073 250.867 24.42V28.7647C250.743 28.7793 250.627 28.7901 250.518 28.7901C250.388 28.7901 250.261 28.7803 250.137 28.7676V21.2403C250.137 19.9813 249.919 18.8619 249.354 18.0098H249.355C248.76 17.0569 247.827 16.5801 246.707 16.5801C245.733 16.5801 244.882 16.9506 244.191 17.6289L244.067 17.7559C243.816 18.0164 243.591 18.3107 243.389 18.6348L243.603 18.2237C243.993 17.4789 244.48 16.9364 245.056 16.5616C245.647 16.1893 246.309 16 247.067 16C247.868 16.0001 248.468 16.2029 248.93 16.5537C249.399 16.91 249.809 17.482 250.112 18.3575L250.89 20.6006L251.951 18.4776C252.359 17.6625 252.892 17.0669 253.543 16.6543L253.55 16.6494L253.558 16.6455C254.204 16.2197 254.94 16.0001 255.797 16Z" stroke="black" stroke-width="2"/>
<path d="M207.625 16C208.276 16 208.773 16.1838 209.175 16.5186L209.188 16.5293L209.203 16.541C209.635 16.8759 209.969 17.3588 210.178 18.0498L210.887 20.3936L211.352 19.503C211.206 19.8337 211.073 20.1846 210.959 20.5557L210.956 20.5674C210.623 21.7004 210.465 22.9897 210.465 24.42V28.7657C210.341 28.7802 210.225 28.7901 210.115 28.7901C209.992 28.7901 209.876 28.7824 209.766 28.7725V20.0098C209.766 19.138 209.647 18.3226 209.29 17.6934C208.885 16.9804 208.21 16.5801 207.385 16.5801C206.61 16.5802 205.977 16.9517 205.52 17.5303C205.092 18.0729 204.789 18.8424 204.558 19.7266L204.557 19.7315L203.446 24.0508C202.95 25.9397 202.294 27.1928 201.556 27.9356C200.882 28.5947 199.998 28.9657 198.819 28.9971C198.802 28.9375 198.785 28.8463 198.785 28.71C198.785 28.5709 198.799 28.4794 198.812 28.4248C198.827 28.4237 198.844 28.42 198.865 28.42C199.892 28.4199 200.727 27.8882 201.36 27.0791C202.014 26.2494 202.505 24.9905 202.894 23.4317L203.791 19.9405C204.184 18.481 204.727 17.4967 205.353 16.8858C205.955 16.2991 206.69 16.0001 207.625 16ZM224.215 16C225.407 16 226.19 16.3666 226.721 16.9951C227.278 17.6551 227.625 18.6644 227.625 20.1602V24.3301C227.625 25.4648 227.761 26.4829 228.182 27.2041L228.189 27.2168L228.197 27.2305C228.676 27.9955 229.425 28.3729 230.286 28.416C230.305 28.4788 230.325 28.5811 230.325 28.7403C230.325 28.8414 230.303 28.9215 230.258 28.9991C230.254 28.9991 230.25 29 230.245 29C229.01 29 228.244 28.6306 227.758 28.0332C227.239 27.3966 226.895 26.3299 226.895 24.6602V20.8203C226.895 19.6802 226.69 18.6511 226.152 17.8584C225.579 17.0132 224.723 16.5801 223.705 16.5801C222.155 16.5801 221.026 17.5168 220.294 18.9571L220.291 18.9629C219.592 20.3604 219.285 22.2073 219.285 24.42V28.7647C219.161 28.7793 219.045 28.7901 218.935 28.7901C218.806 28.7901 218.679 28.7803 218.555 28.7676V21.2403C218.555 19.9813 218.337 18.8619 217.772 18.0098H217.773C217.178 17.0569 216.245 16.5801 215.125 16.5801C214.151 16.5801 213.3 16.9506 212.609 17.6289L212.485 17.7559C212.234 18.0164 212.009 18.3107 211.807 18.6348L212.021 18.2237C212.411 17.4789 212.898 16.9364 213.474 16.5616C214.065 16.1893 214.727 16 215.485 16C216.286 16.0001 216.886 16.2029 217.348 16.5537C217.817 16.91 218.227 17.482 218.53 18.3575L219.308 20.6006L220.369 18.4776C220.777 17.6625 221.31 17.0669 221.961 16.6543L221.968 16.6494L221.976 16.6455C222.622 16.2197 223.358 16.0001 224.215 16Z" stroke="black" stroke-width="2"/>
<path d="M194.984 19.0498L194.788 18.7852C194.69 18.6523 194.584 18.5262 194.475 18.4043L194.984 18.9141V16.0811C195.106 16.0687 195.232 16.0596 195.364 16.0596C195.485 16.0596 195.601 16.0674 195.714 16.0782V24.0596C195.714 25.2005 195.883 26.2169 196.311 27.0205L196.321 27.0381L196.332 27.0557C196.854 27.9456 197.709 28.3718 198.704 28.4151C198.729 28.5152 198.744 28.6227 198.744 28.7403C198.744 28.8415 198.722 28.9215 198.677 28.9991C198.673 28.9991 198.668 29 198.664 29C197.834 29 197.224 28.8148 196.769 28.5098C196.319 28.2069 195.942 27.7318 195.671 27.0088L195.008 25.2412L193.918 26.7823C193.427 27.4757 192.815 28.0214 192.072 28.4278C191.37 28.8035 190.574 29 189.664 29C188.658 29 187.804 28.7856 187.073 28.3828C186.342 27.9484 185.74 27.3568 185.264 26.5918L184.43 25.252L183.574 26.5772C182.526 28.1994 181.245 28.9464 179.688 28.9951C179.671 28.9356 179.654 28.8449 179.654 28.71C179.654 28.5709 179.668 28.4794 179.682 28.4248C179.696 28.4237 179.713 28.42 179.734 28.42C180.77 28.4199 181.673 27.9096 182.433 27.126L182.432 27.125C183.208 26.3252 183.822 25.2907 184.297 24.0606L184.378 23.8516L184.361 23.6289C184.343 23.3727 184.334 23.1164 184.334 22.8604C184.334 21.4746 184.607 20.2837 185.126 19.2637C185.653 18.2272 186.349 17.4332 187.211 16.8565L187.212 16.8575C188.079 16.2906 189.066 16.0001 190.204 16C190.767 16 191.328 16.1119 191.893 16.3448L191.917 16.3545C192.481 16.5703 192.928 16.8577 193.277 17.2071L194.06 17.9903C193.723 17.6888 193.348 17.4285 192.935 17.2129H192.935C192.179 16.798 191.374 16.5801 190.534 16.5801C189.485 16.5801 188.522 16.8642 187.683 17.4492C186.868 18.0166 186.241 18.785 185.795 19.7217C185.338 20.6601 185.124 21.7151 185.124 22.8604C185.124 24.4225 185.476 25.7849 186.296 26.835L186.305 26.8457L186.312 26.8565C187.183 27.9114 188.379 28.4199 189.784 28.42C191.299 28.42 192.594 27.8893 193.563 26.792L193.562 26.791C194.536 25.7122 194.984 24.33 194.984 22.7403V19.0498Z" stroke="black" stroke-width="2"/>
<path d="M169.59 14.0983C169.708 14.5351 169.808 15.0621 169.882 15.6872L170.009 16.7634L171.071 16.5505C171.379 16.4889 171.716 16.4168 172.081 16.3356C172.705 16.1991 173.174 16.119 173.5 16.0847L173.543 16.0788C173.913 16.0232 174.201 15.9997 174.415 15.9997C175.2 15.9997 175.747 16.2774 176.167 16.8327L176.175 16.8425C176.617 17.4131 176.895 18.2619 176.895 19.4997V24.3298C176.895 25.4644 177.031 26.4826 177.451 27.2038L177.459 27.2175L177.467 27.2302C177.945 27.9953 178.695 28.3725 179.556 28.4157C179.575 28.4784 179.595 28.5805 179.595 28.7399C179.595 28.8412 179.572 28.9211 179.527 28.9987C179.523 28.9988 179.519 28.9997 179.515 28.9997C178.279 28.9996 177.514 28.6312 177.027 28.0339C176.509 27.3972 176.165 26.3298 176.165 24.6599V20.0104C176.165 19.0973 176.074 18.2371 175.739 17.6345C175.315 16.8702 174.557 16.5798 173.785 16.5798C173.533 16.5798 173.271 16.6077 173.006 16.6559C172.769 16.6991 172.365 16.7822 171.806 16.902L171.793 16.905C171.374 17.0002 171.028 17.0627 170.751 17.0974L169.941 17.1989L169.878 18.0124C169.693 20.3738 168.856 22.599 167.337 24.7009C165.829 26.7668 163.702 28.7165 160.924 30.5417C160.921 30.5372 160.919 30.5327 160.916 30.528L160.889 30.4831L160.82 30.3698C160.723 30.1956 160.67 30.0386 160.645 29.8972C160.698 29.8558 160.766 29.803 160.855 29.7419L160.854 29.7409C162.582 28.5874 164.079 27.3433 165.335 26.0036L165.34 25.9987C166.595 24.6388 167.577 23.2364 168.268 21.7907L168.27 21.7858C168.961 20.3166 169.318 18.8656 169.295 17.444L169.29 17.1257L169.102 16.8688L168.958 16.6647C168.819 16.4588 168.675 16.2244 168.528 15.9597C168.354 15.5914 168.205 15.226 168.083 14.863C168.053 14.7552 168.029 14.6575 168.01 14.57C168.197 14.4717 168.442 14.3717 168.757 14.279C169.063 14.1889 169.34 14.13 169.59 14.0983Z" stroke="black" stroke-width="2"/>
<path d="M158.071 31.793C154.769 34.1249 152.847 36.7366 152.847 39.6602C152.847 40.659 153.079 41.5791 153.667 42.294V42.295C153.671 42.3002 153.675 42.3054 153.679 42.3106V42.3096C154.288 43.0606 155.133 43.4199 156.097 43.42C157.307 43.42 158.275 42.8566 158.878 41.8076C159.432 40.8422 159.648 39.523 159.648 37.9805V30.6797L158.071 31.793ZM159.588 19.0498L159.391 18.7852C159.294 18.6533 159.189 18.5282 159.081 18.4073L159.588 18.9141V16.0811C159.709 16.0686 159.835 16.0596 159.967 16.0596C160.088 16.0596 160.205 16.0673 160.318 16.0782V37.9805C160.318 40.2281 159.902 41.7331 159.228 42.6553C158.597 43.519 157.644 43.9999 156.188 44C154.823 44 153.869 43.6028 153.197 42.9053C152.535 42.1974 152.148 41.1774 152.148 39.7198C152.148 36.5734 154.29 33.4065 159.187 30.2725L159.648 29.9776V25.6944L157.928 27.4756C157.46 27.9606 156.919 28.335 156.3 28.6026C155.697 28.8635 155.023 29 154.267 29C153.177 29 152.258 28.7431 151.476 28.2569C150.703 27.7635 150.082 27.0689 149.616 26.1407C149.173 25.2182 148.938 24.1326 148.938 22.8604C148.938 21.7515 149.119 20.7442 149.471 19.8291L150.152 18.0596L148.307 18.4971C146.47 18.9327 144.469 19.1549 142.301 19.1592C142.272 19.0918 142.248 18.9919 142.248 18.8399C142.248 18.7365 142.257 18.6615 142.266 18.6094C145.752 18.6061 148.974 18.0064 151.919 16.795L151.981 16.7686L152.04 16.7354C152.884 16.2458 153.8 16.0001 154.807 16C155.37 16 155.931 16.112 156.497 16.3448L156.52 16.3545C157.085 16.5703 157.531 16.8577 157.881 17.2071L158.659 17.9854C158.323 17.6859 157.949 17.4274 157.538 17.2129H157.539C156.782 16.798 155.977 16.5801 155.137 16.5801C154.088 16.5802 153.125 16.8642 152.286 17.4492C151.469 18.0184 150.841 18.7898 150.394 19.7305C149.94 20.6667 149.728 21.7186 149.728 22.8604C149.728 24.4225 150.08 25.785 150.899 26.835L150.917 26.8565C151.787 27.9112 152.983 28.4199 154.387 28.42C155.898 28.42 157.189 27.8918 158.158 26.8008L158.159 26.8018C159.138 25.7216 159.588 24.3346 159.588 22.7403V19.0498Z" stroke="black" stroke-width="2"/>
<path d="M137.412 16C138.579 16 139.594 16.285 140.483 16.8389L140.495 16.8457C141.397 17.3903 142.103 18.1366 142.62 19.1026L142.627 19.1143C143.155 20.0682 143.432 21.1778 143.432 22.4698C143.432 23.7614 143.156 24.8845 142.624 25.8623H142.623L142.617 25.8741C142.097 26.8617 141.388 27.6265 140.484 28.1895C139.62 28.7205 138.607 29 137.412 29C136.346 29 135.401 28.7753 134.56 28.3409C133.717 27.8755 133.024 27.2513 132.473 26.459L131.608 25.2159L130.805 26.4991C129.754 28.176 128.455 28.9459 126.866 28.9951C126.849 28.9356 126.832 28.8449 126.832 28.71C126.832 28.5709 126.845 28.4794 126.859 28.4248C126.874 28.4237 126.891 28.42 126.912 28.42C127.915 28.4199 128.795 27.941 129.539 27.1973C130.293 26.4434 130.899 25.4731 131.376 24.3233L131.485 24.0586L131.438 23.7754C131.368 23.3513 131.332 22.9161 131.332 22.4698C131.332 21.1778 131.609 20.0682 132.137 19.1143C132.675 18.142 133.394 17.3921 134.299 16.8457L134.304 16.8438C135.217 16.2854 136.245 16 137.412 16ZM135.341 16.9893C134.323 17.4217 133.534 18.16 132.976 19.1514C132.411 20.1324 132.152 21.2726 132.152 22.5303C132.152 24.1679 132.582 25.5944 133.528 26.7149L133.536 26.7246C134.521 27.8616 135.836 28.4199 137.382 28.42C138.927 28.42 140.238 27.8611 141.206 26.7149L141.205 26.7139C142.174 25.5901 142.612 24.141 142.612 22.4698C142.612 21.6301 142.487 20.8355 142.225 20.0957L141.996 19.4532L141.315 19.4307L140.914 19.4082C139.994 19.3376 139.168 19.1317 138.427 18.7998C137.603 18.4221 136.985 17.9238 136.537 17.3164L136.068 16.6807L135.341 16.9893Z" stroke="black" stroke-width="2"/>
<path d="M115.038 14.0641C115.266 14.5849 115.469 15.217 115.64 15.9704L115.822 16.777L116.648 16.7497C117.345 16.7264 118.229 16.5793 119.273 16.3336L119.272 16.3327C119.891 16.1977 120.356 16.1187 120.68 16.0846L120.701 16.0827L120.723 16.0788C121.093 16.0232 121.381 15.9997 121.595 15.9997C122.38 15.9997 122.927 16.2774 123.347 16.8327V16.8336L123.354 16.8424C123.797 17.4131 124.075 18.2619 124.075 19.4997V24.3297C124.075 25.4644 124.21 26.4825 124.631 27.2038L124.639 27.2174L124.646 27.2301C125.125 27.9953 125.875 28.3724 126.735 28.4157C126.754 28.4784 126.774 28.5804 126.774 28.7399C126.774 28.8411 126.752 28.9211 126.707 28.9987C126.703 28.9988 126.699 28.9997 126.694 28.9997C125.459 28.9996 124.695 28.6309 124.208 28.0338C123.689 27.3972 123.345 26.3298 123.345 24.6598V20.0104C123.345 19.0972 123.254 18.2371 122.919 17.6344C122.494 16.8702 121.736 16.5798 120.965 16.5797C120.712 16.5797 120.451 16.6076 120.185 16.6559C119.95 16.6988 119.549 16.7814 118.995 16.9001C118.024 17.0982 117.333 17.2078 116.895 17.2428L115.915 17.3219L115.977 18.3024C115.995 18.6016 116.005 18.9008 116.005 19.1999C116.005 21.2665 115.708 23.0307 115.141 24.5124C114.572 25.9969 113.789 27.0964 112.815 27.8649L112.809 27.8708C111.914 28.5892 110.881 28.9656 109.669 28.9967C109.651 28.9372 109.635 28.8456 109.635 28.7096C109.635 28.5702 109.649 28.4789 109.663 28.4245C109.677 28.4233 109.694 28.4196 109.715 28.4196C110.906 28.4196 111.938 27.9184 112.781 27.026C113.611 26.1491 114.226 25.0044 114.658 23.6422L114.657 23.6413C115.113 22.2685 115.335 20.7651 115.335 19.1403C115.335 18.7442 115.312 18.3692 115.266 18.0182C115.221 17.687 115.163 17.3806 115.083 17.1129L115.01 16.8708L114.832 16.693L114.76 16.611C114.676 16.5071 114.558 16.3323 114.408 16.0602C114.234 15.7101 114.076 15.3411 113.934 14.9528C113.876 14.7622 113.838 14.6055 113.813 14.4792C113.922 14.3898 114.069 14.3018 114.273 14.2233L114.283 14.2194L114.292 14.2165C114.518 14.1245 114.764 14.071 115.038 14.0641Z" stroke="black" stroke-width="2"/>
<path d="M103.081 16C104.219 16.0001 105.059 16.3617 105.695 17.0547L105.82 17.1973L105.826 17.2051C106.486 17.9885 106.881 19.1506 106.881 20.8203V24.3301C106.881 25.4648 107.016 26.4829 107.436 27.2041L107.444 27.2168L107.452 27.2305C107.93 27.9958 108.681 28.373 109.542 28.416C109.561 28.4788 109.581 28.5812 109.581 28.7403C109.581 28.8415 109.557 28.9214 109.513 28.9991C109.509 28.9991 109.505 29 109.501 29C108.265 29 107.5 28.6306 107.014 28.0332C106.495 27.3966 106.15 26.33 106.15 24.6602V20.8203C106.15 19.6481 105.941 18.5876 105.365 17.7998C104.746 16.9538 103.824 16.5801 102.78 16.5801C101.794 16.5802 100.917 16.9705 100.179 17.6582C99.4645 18.3232 98.9277 19.1829 98.5448 20.1963L98.5409 20.208C98.1748 21.2147 98.0009 22.3231 98.0009 23.5196V39.8047C97.8764 39.8193 97.7599 39.8301 97.6503 39.8301C97.5208 39.8301 97.3945 39.8203 97.2704 39.8076V21.0596L95.3759 20.6123C94.948 21.468 94.4708 22.3459 93.9432 23.2451C93.4156 24.1246 92.8685 24.9641 92.3036 25.7627L92.2997 25.7696L92.2948 25.7764C91.7443 26.5824 91.2264 27.2942 90.7421 27.9141C90.4645 28.2694 90.2172 28.5681 90.0018 28.8155C89.9225 28.7672 89.8426 28.7128 89.7635 28.6485C89.6862 28.5738 89.6186 28.4972 89.5575 28.42C91.079 26.5347 92.4741 24.5329 93.7391 22.4121L93.7411 22.4092C95.0029 20.2753 96.0557 18.159 96.9003 16.0625C97.0369 16.0659 97.1906 16.0733 97.3612 16.0869C97.476 16.0961 97.5787 16.1106 97.6708 16.127V21.127L99.5184 18.17C100.463 16.658 101.635 16 103.081 16Z" stroke="black" stroke-width="2"/>
<path d="M72.406 19.0498L72.2087 18.7852C72.1103 18.6523 72.0053 18.5261 71.8962 18.4043L72.406 18.9141V16.0811C72.5273 16.0687 72.6538 16.0596 72.7859 16.0596C72.9063 16.0596 73.0227 16.0673 73.1355 16.0782V24.3301C73.1355 25.4648 73.2714 26.4829 73.6921 27.2041L73.7 27.2168L73.7078 27.2305C74.2171 28.0452 75.0343 28.4199 75.9656 28.42C76.3361 28.42 76.6993 28.336 77.0447 28.2032C77.1638 28.1573 77.2805 28.1024 77.3972 28.044C77.4169 28.0745 77.4399 28.1056 77.4597 28.1416L77.4646 28.1514L77.4705 28.1612C77.5225 28.251 77.5565 28.3352 77.5828 28.4121C77.4194 28.5374 77.2295 28.6551 77.0027 28.7549C76.6375 28.9156 76.2357 29 75.7859 29H75.7556C74.9409 29 74.3377 28.8334 73.8914 28.5616C73.4531 28.2945 73.0961 27.8837 72.8367 27.2705L72.1755 25.7071L71.1287 27.043C70.6393 27.6673 70.0554 28.15 69.3728 28.502C68.703 28.8279 67.9469 29 67.0857 29C65.9931 29 65.0725 28.7421 64.2898 28.2539C63.6135 27.8213 63.0531 27.2348 62.6121 26.4717L62.4304 26.1328C61.9898 25.2121 61.7557 24.129 61.7556 22.8604C61.7556 21.4747 62.0281 20.2837 62.5466 19.2637C63.0736 18.2273 63.7704 17.4342 64.6326 16.8575C65.4996 16.2906 66.4874 16 67.6257 16C68.1885 16 68.7498 16.112 69.3152 16.3448L69.3386 16.3545C69.9029 16.5703 70.3497 16.8578 70.699 17.2071L71.4822 17.9903C71.139 17.6834 70.7559 17.4191 70.3337 17.2012C69.5838 16.7943 68.7874 16.5801 67.9558 16.5801C66.9064 16.5801 65.9437 16.8643 65.1042 17.4492C64.2902 18.0166 63.6631 18.7851 63.2166 19.7217C62.7594 20.6601 62.5457 21.7151 62.5457 22.8604C62.5457 24.4226 62.898 25.7849 63.7175 26.835L63.7253 26.8457L63.7341 26.8565C64.6045 27.9115 65.8009 28.42 67.2058 28.42C68.7209 28.4199 70.0154 27.8893 70.9851 26.792L70.9841 26.791C71.9577 25.7122 72.406 24.3299 72.406 22.7403V19.0498Z" stroke="black" stroke-width="2"/>
<path d="M43.8391 8.5C43.9683 8.5 44.0949 8.50888 44.2189 8.52148V14.0195H48.8918C48.8954 14.0819 48.8996 14.1485 48.8996 14.2197C48.8996 14.2909 48.8953 14.3576 48.8918 14.4199H44.2189V24.4199C44.2189 24.9556 44.2636 25.483 44.3537 26.001C44.4591 26.6068 44.692 27.1614 45.0734 27.6309L45.0949 27.6572L45.1183 27.6826C45.6351 28.2362 46.3308 28.4501 47.049 28.4502C47.7429 28.4502 48.3869 28.2098 48.9767 27.8164C49.0043 27.849 49.0353 27.883 49.0646 27.9229C49.1157 27.9921 49.1565 28.0555 49.1896 28.1123C48.9787 28.2827 48.713 28.4598 48.3801 28.6367C47.9268 28.8683 47.3725 29 46.6896 29C45.7704 29 45.1656 28.8005 44.7717 28.5107C44.3883 28.2111 44.0896 27.8152 43.8849 27.292L43.8029 27.0576C43.5787 26.3306 43.4592 25.4947 43.4592 24.54V13.8203L41.6994 15.8799C40.8442 16.8807 39.8744 17.631 38.7902 18.1465C37.6688 18.6796 36.6755 18.9199 35.799 18.9199C35.7687 18.9199 35.746 18.9171 35.7297 18.915C35.6931 18.8544 35.6594 18.7612 35.6594 18.5996C35.6594 18.5364 35.664 18.4898 35.6691 18.457C35.6743 18.4564 35.6798 18.4556 35.6857 18.4551L35.7053 18.4531C37.0456 18.2968 38.3003 17.8707 39.4611 17.1787L39.4738 17.1719C40.6411 16.4535 41.5912 15.516 42.3137 14.3662C43.0795 13.1595 43.4592 11.8115 43.4592 10.3496V8.5166C43.5753 8.50666 43.7016 8.50001 43.8391 8.5Z" stroke="black" stroke-width="2"/>
<path d="M31.0974 16C32.2647 16 33.279 16.285 34.1687 16.8389L34.1804 16.8457C35.0824 17.3904 35.7879 18.1366 36.3054 19.1026L36.3123 19.1143C36.8403 20.0682 37.1169 21.1778 37.1169 22.4698C37.1169 23.7615 36.8411 24.8846 36.3093 25.8623H36.3083L36.3025 25.8741C35.7827 26.8617 35.0734 27.6265 34.1697 28.1895C33.3055 28.7205 32.2926 29 31.0974 29C29.9034 29 28.8637 28.7218 27.9519 28.1826C27.0543 27.6205 26.3389 26.8572 25.8015 25.8731C25.2861 24.8932 25.0173 23.7663 25.0173 22.4698C25.0174 21.1778 25.294 20.0682 25.822 19.1143C26.3603 18.142 27.0792 17.3921 27.9841 16.8457L27.989 16.8438C28.9027 16.2854 29.9301 16 31.0974 16ZM29.0261 16.9893C28.0088 17.4217 27.2194 18.16 26.6609 19.1514C26.0968 20.1324 25.8376 21.2726 25.8376 22.5303C25.8377 24.1679 26.2674 25.5944 27.2136 26.7149L27.2214 26.7246C28.2068 27.8616 29.5218 28.4199 31.0671 28.42C32.6127 28.42 33.9235 27.8611 34.8914 26.7149L34.8904 26.7139C35.8595 25.5901 36.2976 24.141 36.2976 22.4698C36.2976 21.6301 36.1724 20.8355 35.9099 20.0957L35.6814 19.4532L35.0007 19.4307L34.5994 19.4082C33.679 19.3376 32.8529 19.1317 32.1121 18.7998C31.2886 18.4221 30.67 17.9238 30.2224 17.3164L29.7537 16.6807L29.0261 16.9893Z" stroke="black" stroke-width="2"/>
<path d="M18.6002 8.71002C18.7225 8.71003 18.8489 8.71864 18.98 8.73346V28.7833C18.9349 28.7857 18.8884 28.7901 18.8404 28.7901C18.5967 28.7901 18.3717 28.7626 18.1627 28.7149L6.54645 12.2921L4.73004 9.72467V28.7637C4.59057 28.7794 4.45404 28.7901 4.31989 28.7901C4.18748 28.7901 4.06113 28.7813 3.94 28.7696V8.73151C4.06917 8.71904 4.20569 8.71002 4.35016 8.71002C4.49299 8.71003 4.63634 8.71751 4.77985 8.73346V8.73444L4.79059 8.73541C4.82528 8.73888 4.85995 8.74473 4.89508 8.75006L16.3736 24.9678L18.19 27.5342V8.73151C18.3192 8.71904 18.4557 8.71002 18.6002 8.71002Z" stroke="black" stroke-width="2"/>
</svg>
