<svg width="800" height="800" viewBox="0 0 800 800" fill="none" xmlns="http://www.w3.org/2000/svg">
<path d="M400 48C353.772 47.9895 307.994 57.0871 265.283 74.773C222.572 92.4589 183.763 118.387 151.075 151.075C118.387 183.763 92.4589 222.572 74.773 265.283C57.0871 307.994 47.9895 353.772 48 400C48 469.619 68.6444 537.675 107.323 595.561C146.001 653.447 200.976 698.564 265.295 725.206C329.615 751.848 400.39 758.818 468.672 745.236C536.953 731.654 599.674 698.13 648.902 648.902C698.13 599.674 731.654 536.953 745.236 468.672C758.818 400.39 751.848 329.615 725.206 265.295C698.564 200.976 653.447 146.001 595.561 107.323C537.675 68.6444 469.619 48 400 48ZM539.12 580.08C532.2 580.08 527.36 577.44 522.28 574.36C474.72 545.52 415.8 530.4 351.96 530.4C319.4 530.4 284.24 534.28 247.56 541.8L243.08 542.92C238.44 544.04 233.68 545.28 230.04 545.28C226.57 545.333 223.124 544.693 219.905 543.395C216.687 542.098 213.759 540.171 211.296 537.726C208.833 535.281 206.883 532.369 205.561 529.16C204.24 525.951 203.573 522.51 203.6 519.04C203.6 504.12 212 493.56 226.08 490.92C267.409 481.209 309.706 476.217 352.16 476.04C426.36 476.04 492.68 493.24 549.4 527.2C559.12 532.88 565.24 539.44 565.24 553.92C565.229 560.848 562.475 567.49 557.58 572.392C552.685 577.295 546.048 580.059 539.12 580.08ZM575.64 477.64C567.36 477.64 561.92 474.48 557.12 471.68C471.4 420.84 343.8 403.96 238.68 431.96C237.072 432.426 235.472 432.92 233.88 433.44C229.92 434.68 226.24 435.92 221.04 435.92C212.709 435.888 204.73 432.551 198.858 426.641C192.985 420.731 189.699 412.732 189.72 404.4C189.72 387.64 198.48 375.92 214.28 371.44C254.8 360.32 292.84 352.96 347.6 352.96C436.08 352.96 521.88 375.16 589.12 415.4C601.36 422.4 606.92 431.96 606.92 446.24C606.931 454.55 603.642 462.525 597.777 468.412C591.912 474.3 583.95 477.619 575.64 477.64ZM617.08 360.84C609.28 360.84 604.48 358.96 597.28 355.08C539.16 320.2 448.48 299.44 354.52 299.44C305.56 299.44 261.08 304.84 222.28 315.32C220.965 315.648 219.658 316.008 218.36 316.4C213.651 318.011 208.733 318.927 203.76 319.12C198.891 319.147 194.066 318.202 189.567 316.339C185.069 314.476 180.988 311.734 177.564 308.272C174.14 304.811 171.441 300.7 169.627 296.182C167.813 291.663 166.92 286.828 167 281.96C167 263.84 177.16 250 194.2 244.96C241.04 231.12 294.96 224.12 354.44 224.12C461.56 224.12 563.48 247.92 634.08 289.36C647.36 296.92 653.88 308.36 653.88 324.24C653.918 329.074 652.99 333.866 651.152 338.337C649.313 342.808 646.601 346.866 643.173 350.275C639.746 353.684 635.672 356.374 631.192 358.188C626.711 360.003 621.914 360.904 617.08 360.84Z" fill="#1ED760"/>
</svg>
