<svg width="32" height="32" viewBox="0 0 32 32" fill="none" xmlns="http://www.w3.org/2000/svg">
<path d="M0.642471 20.2841C2.58906 26.7746 8.60949 31.5077 15.7337 31.5077C24.4342 31.5077 31.4875 24.4544 31.4875 15.7538C31.4875 7.05329 24.4342 0 15.7337 0C7.38512 0 0.553363 6.49502 0.0137939 14.7072C1.03484 16.419 1.43115 17.4779 0.641486 20.2841H0.642471Z" fill="url(#paint0_linear_23_114)"/>
<path d="M14.9219 11.8078L14.9234 11.8856L11.0686 17.4856C10.4444 17.457 9.81815 17.5668 9.22345 17.8115C8.96456 17.9167 8.71739 18.0487 8.48597 18.2053L0.0207377 14.7164C0.0207377 14.7164 -0.175201 17.939 0.641045 20.3405L6.62554 22.8099C6.92092 24.1529 7.84646 25.3305 9.20621 25.8967C10.276 26.3412 11.4784 26.3429 12.5494 25.9015C13.6205 25.4601 14.4725 24.6116 14.9185 23.5425C15.1564 22.9729 15.2711 22.3596 15.2552 21.7426L20.7656 17.8017L20.901 17.8041C24.2019 17.8041 26.885 15.1132 26.885 11.8078C26.885 8.50245 24.2068 5.82135 20.901 5.81445C17.6015 5.81445 14.917 8.50245 14.917 11.8078H14.9219ZM13.9964 23.1555C13.2806 24.8786 11.3054 25.6894 9.58874 24.9741C8.82695 24.6539 8.20947 24.0648 7.85385 23.3189L9.80191 24.1263C10.1028 24.2516 10.4255 24.3163 10.7515 24.3169C11.0774 24.3174 11.4003 24.2537 11.7017 24.1293C12.003 24.005 12.2769 23.8226 12.5077 23.5924C12.7385 23.3622 12.9216 23.0888 13.0467 22.7877C13.3 22.1795 13.3015 21.4956 13.0509 20.8863C12.8003 20.277 12.318 19.792 11.7101 19.538L9.69163 18.7036C10.4685 18.4082 11.3517 18.3983 12.1778 18.7415C13.0147 19.0876 13.6547 19.7394 13.9974 20.5729C14.34 21.4063 14.338 22.3255 13.9924 23.1555M20.9064 15.8029C19.8487 15.8 18.8352 15.3781 18.0879 14.6294C17.3407 13.8808 16.9206 12.8665 16.9197 11.8088C16.9209 10.7512 17.3411 9.7372 18.0883 8.98879C18.8355 8.24037 19.8488 7.81855 20.9064 7.81568C21.9641 7.81829 22.9777 8.24 23.7252 8.98844C24.4726 9.73689 24.8929 10.751 24.8941 11.8088C24.8932 12.8667 24.473 13.8811 23.7255 14.6298C22.978 15.3784 21.9643 15.8003 20.9064 15.8029ZM17.9191 11.8024C17.9184 11.0077 18.2333 10.2452 18.7946 9.68252C19.3559 9.11987 20.1176 8.80308 20.9123 8.80178C22.564 8.80178 23.9075 10.1458 23.9075 11.8024C23.9079 12.5973 23.5926 13.3598 23.0309 13.9223C22.4693 14.4848 21.7072 14.8012 20.9123 14.802C20.1177 14.8008 19.356 14.4843 18.7946 13.9218C18.2333 13.3593 17.9187 12.597 17.9191 11.8024Z" fill="white"/>
<defs>
<linearGradient id="paint0_linear_23_114" x1="1573.7" y1="0" x2="1573.7" y2="3150.77" gradientUnits="userSpaceOnUse">
<stop stop-color="#111D2E"/>
<stop offset="0.212" stop-color="#051839"/>
<stop offset="0.407" stop-color="#0A1B48"/>
<stop offset="0.581" stop-color="#132E62"/>
<stop offset="0.738" stop-color="#144B7E"/>
<stop offset="0.873" stop-color="#136497"/>
<stop offset="1" stop-color="#1387B8"/>
</linearGradient>
</defs>
</svg>
