<svg width="800" height="800" viewBox="0 0 800 800" fill="none" xmlns="http://www.w3.org/2000/svg">
<g clip-path="url(#clip0_150_21)">
<path d="M638.316 254.165C630.4 245.375 616.87 244.676 608.087 252.592C599.309 260.494 598.606 274.022 606.514 282.812C636.436 316.019 651.378 357.928 651.386 400C651.378 442.087 636.437 483.994 606.522 517.184C598.606 525.962 599.311 539.505 608.087 547.42C616.864 555.32 630.4 554.623 638.308 545.847C675.561 504.517 694.206 452.184 694.191 400C694.205 347.828 675.559 295.48 638.316 254.165Z" fill="white"/>
<path d="M717 183.328C709.092 174.552 695.562 173.853 686.778 181.769C677.994 189.669 677.289 203.198 685.205 211.989C733.208 265.258 757.186 332.545 757.2 399.998C757.184 467.448 733.208 534.736 685.205 588.02C677.289 596.798 677.995 610.327 686.778 618.242C695.562 626.158 709.091 625.461 717.006 616.667C772.326 555.261 800.016 477.548 800 400C800.016 322.45 772.326 244.736 717 183.328Z" fill="white"/>
<path d="M196.958 415.488C187.163 407.486 187.163 392.514 196.958 384.512L522.346 118.677C535.408 108.007 555 117.3 555 134.165V665.835C555 682.7 535.408 691.993 522.346 681.323L196.958 415.488Z" fill="white"/>
</g>
<defs>
<clipPath id="clip0_150_21">
<rect width="800" height="800" fill="white"/>
</clipPath>
</defs>
</svg>
